<?xml version="1.0" encoding="UTF-8" standalone="no"?>
<!-- Generator: Adobe Illustrator 15.1.0, SVG Export Plug-In . SVG Version: 6.00 Build 0)  -->

<svg
   xmlns:dc="http://purl.org/dc/elements/1.1/"
   xmlns:cc="http://creativecommons.org/ns#"
   xmlns:rdf="http://www.w3.org/1999/02/22-rdf-syntax-ns#"
   xmlns:svg="http://www.w3.org/2000/svg"
   xmlns="http://www.w3.org/2000/svg"
   xmlns:sodipodi="http://sodipodi.sourceforge.net/DTD/sodipodi-0.dtd"
   xmlns:inkscape="http://www.inkscape.org/namespaces/inkscape"
   version="1.1"
   id="Calque_1"
   x="0px"
   y="0px"
   width="506"
   height="101.245"
   viewBox="0 0 505.99998 101.245"
   enable-background="new 0 0 538.58 170.08"
   xml:space="preserve"
   inkscape:version="0.91 r13725"
   sodipodi:docname="geolab-pantone.svg"><metadata
     id="metadata187"><rdf:RDF><cc:Work
         rdf:about=""><dc:format>image/svg+xml</dc:format><dc:type
           rdf:resource="http://purl.org/dc/dcmitype/StillImage" /><dc:title></dc:title></cc:Work></rdf:RDF></metadata><defs
     id="defs185" /><sodipodi:namedview
     pagecolor="#ffffff"
     bordercolor="#666666"
     borderopacity="1"
     objecttolerance="10"
     gridtolerance="10"
     guidetolerance="10"
     inkscape:pageopacity="0"
     inkscape:pageshadow="2"
     inkscape:window-width="782"
     inkscape:window-height="480"
     id="namedview183"
     showgrid="false"
     fit-margin-top="0"
     fit-margin-left="0"
     fit-margin-right="0"
     fit-margin-bottom="0"
     inkscape:zoom="0.8225333"
     inkscape:cx="98.5156"
     inkscape:cy="50.665999"
     inkscape:window-x="0"
     inkscape:window-y="0"
     inkscape:window-maximized="0"
     inkscape:current-layer="Calque_1" /><g
     id="g3"
     transform="translate(-18.197,-34.461)"><g
       id="g5"
       style="opacity:0.75"><path
         d="m 134.939,40.225 c 0,-3.169 2.593,-5.763 5.763,-5.763 l 52.414,0 c 3.169,0 5.763,2.593 5.763,5.763 l 0,89.718 c 0,3.17 -2.593,5.763 -5.763,5.763 l -52.414,0 c -3.169,0 -5.763,-2.593 -5.763,-5.763 l 0,-89.718 z"
         id="path7"
         inkscape:connector-curvature="0"
         style="fill:#7e64a4" /></g><g
       id="g9"
       style="opacity:0.75"><path
         d="m 31.824,40.098 c 0,-3.1 2.536,-5.636 5.636,-5.636 l 142.948,0 c 3.1,0 5.636,2.536 5.636,5.636 l 0,89.972 c 0,3.1 -2.536,5.636 -5.636,5.636 l -142.949,0 c -3.1,0 -5.636,-2.536 -5.636,-5.636 l 0,-89.972 z"
         id="path11"
         inkscape:connector-curvature="0"
         style="fill:#7e64a4" /></g><g
       id="g13"
       style="opacity:0.45"><path
         d="m 18.197,39.072 c 0,-2.535 2.075,-4.61 4.61,-4.61 l 124.992,0 c 2.535,0 4.61,2.075 4.61,4.61 l 0,92.023 c 0,2.536 -2.075,4.61 -4.61,4.61 l -124.992,0 c -2.535,0 -4.61,-2.074 -4.61,-4.61 l 0,-92.023 z"
         id="path15"
         inkscape:connector-curvature="0"
         style="fill:#7e64a4" /></g><g
       id="g17"><g
         id="g19"><path
           d="m 312.822,111.159 0,-45.514 c -1.822,7.214 -5.072,15.5 -10.428,24.876 -4.553,7.962 -10.199,15.607 -16.729,22.206 8.46,5.459 18.45,3.121 27.157,-1.568"
           id="path21"
           inkscape:connector-curvature="0"
           style="fill:#7e64a4" /><path
           d="m 280.115,105.123 c 3.414,-3.068 5.539,-5.466 7.947,-8.354 12.348,-14.834 27.777,-40.619 24.285,-56.444 -2.842,-12.9 -15.18,-0.609 -20.648,6.28 -7.166,9.019 -12.135,19.828 -14.262,31.175 -1.755,9.311 -1.564,19.142 2.678,27.343"
           id="path23"
           inkscape:connector-curvature="0"
           style="fill:#7e64a4" /><path
           d="m 225.408,76.917 c -0.16,0.201 1.105,4.381 1.883,6.359 0.791,1.979 1.412,2.881 1.058,3.523 -3.916,7.033 -8.714,19.514 -6.788,26.721 0.692,2.603 3.775,3.798 6.743,2.322 17.259,-8.566 23.219,-37.984 23.733,-39.868 0.476,1.64 0.628,2.979 1.458,4.911 0.827,1.936 1.846,3.544 1.483,4.994 -0.979,3.877 -1.947,7.881 -3.143,11.809 -0.842,3.842 -1.762,8.857 -0.888,11.656 3.756,12.153 17.896,5.63 27.068,-2.259 -3.646,-10.434 -5.5,-21.183 -4.594,-32.442 1.148,-14.272 7.018,-29.589 17.197,-40.182 l -72.656,0 c -3.524,0 -6.376,2.852 -6.376,6.373 l 0,50.51 c 5.014,-4.404 9.771,-9.073 13.822,-14.427"
           id="path25"
           inkscape:connector-curvature="0"
           style="fill:#7e64a4" /></g><path
         d="m 282.121,116.08 c -1.121,1 -2.275,1.969 -3.465,2.884 -10.386,8.09 -21.218,10.313 -27.027,-3.645 -1.26,-3.021 -2.105,-5.969 -2.635,-8.873 -0.06,-0.17 -0.106,-0.339 -0.169,-0.509 -1.814,4.09 -4.409,7.684 -7.285,11.238 -2.44,3.005 -7.413,8.619 -11.641,9.049 -4.407,0.454 -6.358,-3.879 -7.778,-7.419 -1.577,-3.926 -3.634,-9.461 -3.592,-13.756 0.031,-3.021 1.582,-10.852 2.36,-13.684 -2.419,3.232 -6.038,7.752 -9.302,11.021 l 0,26.931 c 0,3.524 2.852,6.387 6.376,6.387 l 88.484,0 c 3.525,0 6.375,-2.862 6.375,-6.387 l 0,-6.941 c -11.41,4.874 -23.621,4.318 -30.701,-6.296"
         id="path27"
         inkscape:connector-curvature="0"
         style="fill:#7e64a4" /></g></g><g
     id="g29"
     transform="translate(-18.197,-34.461)"><path
       d="m 345.318,54.46 5.09,0 0.012,16.681 c 0.008,7.789 -4.795,10.341 -10.219,10.346 -5.428,0 -10.225,-2.55 -10.225,-10.333 l -0.016,-16.683 5.098,-0.006 0.004,16.906 c 0,4.313 1.697,5.832 5.139,5.827 3.432,0 5.123,-1.514 5.123,-5.827"
       id="path31"
       inkscape:connector-curvature="0"
       style="fill:#4c565c" /><path
       d="m 357.73,81.103 -0.01,-19.193 4.211,-0.002 0,2.071 c 1.691,-1.184 3.656,-2.445 5.902,-2.445 3.84,0 5.691,2.512 5.691,6.418 l 0.01,13.15 -4.582,0 -0.004,-12.481 c 0,-2.583 -0.816,-3.388 -2.365,-3.388 -1.996,0 -3.51,1.142 -4.285,2.026 l 0.01,13.845"
       id="path33"
       inkscape:connector-curvature="0"
       style="fill:#4c565c" /><path
       d="m 380.574,58.352 -0.004,-4.28 4.574,0 0.004,4.28 m 0.012,22.747 -4.58,0 -0.006,-19.2 4.574,-0.007 0.012,19.207 z"
       id="path35"
       inkscape:connector-curvature="0"
       style="fill:#4c565c" /><polyline
       points="390.207,61.892 394.783,61.892 397.969,74.883 398.031,74.883 401.281,61.892 405.855,61.885    400.369,81.083 395.57,81.087  "
       id="polyline37"
       style="fill:#4c565c" /><path
       d="m 413.539,72.215 c 0.082,3.995 1.854,5.54 3.992,5.533 2.141,0 3.137,-0.957 4.279,-2.281 l 3.322,2.06 c -1.779,2.733 -4.354,3.914 -8.047,3.921 -4.979,0.002 -8.117,-3.876 -8.121,-9.969 -0.008,-6.09 3.129,-9.962 8.336,-9.969 5.02,-0.038 7.826,4.204 7.832,8.818 l 0,1.886 m -4.21,-3.1 c -0.082,-2.662 -1.484,-4.207 -3.695,-4.207 -2.215,0.002 -3.617,1.558 -3.695,4.207 l 7.39,0 z"
       id="path39"
       inkscape:connector-curvature="0"
       style="fill:#4c565c" /><path
       d="m 430.447,81.073 -0.004,-19.199 4.201,0 0,3.281 0.074,0 c 1.111,-2.287 2.66,-3.578 5.393,-3.654 l 0,4.833 c -0.221,-0.033 -0.48,-0.033 -0.811,-0.033 -2.293,0 -4.277,2.617 -4.277,3.098 l 0.002,11.674"
       id="path41"
       inkscape:connector-curvature="0"
       style="fill:#4c565c" /><path
       d="m 454.213,66.917 c -0.92,-0.99 -2.141,-2.024 -3.582,-2.024 -1.771,0 -2.582,0.738 -2.582,1.888 0.002,3.279 9.596,1.873 9.602,8.888 0,3.981 -3.025,5.753 -7.045,5.758 -3.063,0.005 -5.58,-1.364 -7.275,-3.874 l 3.063,-2.292 c 1.07,1.482 2.51,2.771 4.469,2.771 1.627,0 2.73,-0.889 2.73,-2.182 -0.004,-3.277 -9.596,-2.1 -9.605,-8.778 0,-3.58 3.027,-5.578 6.35,-5.578 2.543,0 5.09,0.961 6.758,2.911"
       id="path43"
       inkscape:connector-curvature="0"
       style="fill:#4c565c" /><path
       d="m 463.582,58.316 0,-4.285 4.578,0 0,4.285 m 0.012,22.738 -4.578,0 -0.012,-19.198 4.58,-0.002 0.01,19.2 z"
       id="path45"
       inkscape:connector-curvature="0"
       style="fill:#4c565c" /><path
       d="m 475.957,61.847 -0.01,-6.34 4.582,-0.004 0,6.344 3.766,0 0.002,3.687 -3.768,0 0.008,10.863 c 0,1.03 0.52,1.326 1.66,1.326 0.701,0 1.438,-0.223 2.1,-0.375 l 0.006,3.768 c -1.256,0.145 -2.367,0.294 -3.609,0.294 -3.406,0.007 -4.73,-1.692 -4.736,-4.422 l 0,-11.443 -2.66,0 -0.004,-3.691"
       id="path47"
       inkscape:connector-curvature="0"
       style="fill:#4c565c" /><path
       d="m 492.455,72.177 c 0.08,3.988 1.844,5.54 3.996,5.54 2.133,-0.002 3.133,-0.968 4.279,-2.285 l 3.318,2.058 c -1.775,2.733 -4.355,3.914 -8.045,3.921 -4.986,0 -8.125,-3.876 -8.127,-9.966 -0.004,-6.088 3.137,-9.969 8.338,-9.969 5.023,-0.045 7.826,4.206 7.834,8.81 l 0,1.886 m -4.21,-3.096 c -0.074,-2.666 -1.473,-4.206 -3.691,-4.206 -2.213,0 -3.619,1.554 -3.691,4.211 l 7.382,-0.005 z m 2.543,-15.064 -5.391,5.392 -3.764,0.005 3.469,-5.393 5.686,-0.004 z"
       id="path49"
       inkscape:connector-curvature="0"
       style="fill:#4c565c" /><path
       d="m 345.047,113.9 -3.873,0.005 -0.221,-2.073 c -1.627,1.587 -3.133,2.438 -5.205,2.442 -5.094,0 -7.676,-4.503 -7.682,-10.485 0,-4.72 2.727,-9.445 7.674,-9.452 1.553,0 3.729,0.926 4.65,2.143 l 0.076,0 -0.004,-9.229 4.578,-0.007 m -4.573,12.412 c -0.918,-0.854 -2.07,-1.628 -3.545,-1.628 -2.732,0.005 -4.277,2.219 -4.277,6.277 0,4.06 1.551,6.275 4.285,6.273 1.955,0 2.586,-0.961 3.541,-1.696 l -0.004,-9.226 z"
       id="path51"
       inkscape:connector-curvature="0"
       style="fill:#4c565c" /><path
       d="m 354.719,105.035 c 0.072,3.992 1.848,5.537 3.986,5.537 2.137,-0.005 3.143,-0.961 4.281,-2.292 l 3.318,2.064 c -1.766,2.733 -4.35,3.919 -8.041,3.919 -4.979,0 -8.127,-3.872 -8.127,-9.96 0,-6.092 3.141,-9.978 8.344,-9.978 5.018,-0.038 7.824,4.208 7.824,8.823 l 0,1.886 m -4.208,-3.108 c -0.07,-2.655 -1.475,-4.2 -3.691,-4.2 -2.215,0 -3.615,1.551 -3.686,4.209 l 7.377,-0.009 z"
       id="path53"
       inkscape:connector-curvature="0"
       style="fill:#4c565c" /><polyline
       points="383.969,113.874 383.955,87.224 389.049,87.224 389.061,109.594 400.656,109.589 400.656,113.871     "
       id="polyline55"
       style="fill:#4c565c" /><path
       d="m 406.285,91.134 0,-4.287 4.58,-0.004 0,4.285 m 0.014,22.739 -4.578,0.004 -0.016,-19.2 4.584,-0.002 0.01,19.198 z"
       id="path57"
       inkscape:connector-curvature="0"
       style="fill:#4c565c" /><path
       d="m 417.928,113.854 -0.006,-19.19 4.168,0 0,2.068 c 1.738,-1.59 3.141,-2.435 5.762,-2.441 1.984,0 3.873,0.957 4.723,2.807 1.592,-1.59 3.436,-2.809 6.604,-2.809 1.998,-0.004 4.729,1.18 4.729,5.758 l 0.008,13.799 -4.574,0 -0.008,-13.393 c 0,-1.541 -0.631,-2.396 -2.289,-2.477 -1.186,0 -2.773,1.078 -3.846,2.07 l 0.012,13.806 -4.574,0 -0.01,-13.394 c 0,-1.547 -0.631,-2.402 -2.289,-2.472 -1.176,0 -2.764,1.072 -3.838,2.062 l 0.004,13.806"
       id="path59"
       inkscape:connector-curvature="0"
       style="fill:#4c565c" /><path
       d="m 457.383,94.279 c 5.201,-0.005 8.338,3.876 8.344,9.962 0.008,6.09 -3.135,9.967 -8.34,9.967 -5.203,0.002 -8.342,-3.87 -8.348,-9.958 0,-6.09 3.133,-9.971 8.344,-9.971 m 0,3.695 c -2.551,0 -3.77,1.992 -3.766,6.272 0,4.279 1.227,6.277 3.77,6.277 2.547,-0.005 3.766,-1.998 3.758,-6.277 0,-4.284 -1.217,-6.272 -3.762,-6.272"
       id="path61"
       inkscape:connector-curvature="0"
       style="fill:#4c565c" /><path
       d="m 486.471,97.369 c -1.074,0 -2.256,0 -2.961,0.438 0.598,0.81 1.039,1.924 1.039,3.396 0.002,3.618 -2.434,6.204 -7.236,6.204 -1.988,0 -3.578,0.075 -3.578,1.188 0,3.104 12.625,-1.112 12.629,6.561 0,2.733 -2.768,5.688 -8.893,5.688 -5.164,0.003 -8.564,-1.544 -8.564,-4.574 0,-2.396 1.807,-3.539 3.469,-3.539 l 0,-0.081 c -0.883,-0.553 -2.852,-1.025 -2.852,-3.096 0,-1.844 2.145,-3.248 2.994,-3.507 -1.59,-1.288 -2.84,-2.764 -2.846,-5.093 0,-3.359 2.58,-6.682 7.564,-6.693 1.621,0 3.539,0.67 4.725,1.703 0.887,-1.184 2.322,-1.773 4.502,-1.703 m -13.354,21.419 c 0.006,1.471 1.262,2.144 5.098,2.14 2.955,0 3.949,-1.476 3.949,-2.145 0,-0.878 -1.367,-2.214 -5.795,-2.214 -2.509,0.009 -3.252,1.404 -3.252,2.219 m 4.092,-18.013 c -1.959,0 -3.33,1.407 -3.326,3.173 0,1.77 1.373,3.172 3.334,3.172 1.73,0 3.133,-1.402 3.127,-3.172 0,-1.775 -1.4,-3.179 -3.135,-3.173"
       id="path63"
       inkscape:connector-curvature="0"
       style="fill:#4c565c" /><path
       d="m 494.219,104.968 c 0.076,3.981 1.848,5.533 3.992,5.528 2.145,0 3.139,-0.958 4.281,-2.287 l 3.322,2.066 c -1.773,2.731 -4.359,3.915 -8.047,3.915 -4.984,0.002 -8.119,-3.868 -8.125,-9.96 -0.004,-6.088 3.127,-9.974 8.34,-9.974 5.023,-0.035 7.826,4.209 7.832,8.821 l 0,1.879 m -4.216,-3.091 c -0.072,-2.666 -1.475,-4.209 -3.688,-4.209 -2.221,0 -3.619,1.548 -3.691,4.209 l 7.379,0 z"
       id="path65"
       inkscape:connector-curvature="0"
       style="fill:#4c565c" /><path
       d="m 520.76,99.671 c -0.924,-0.994 -2.146,-2.032 -3.582,-2.023 -1.773,0 -2.586,0.733 -2.586,1.881 0.004,3.284 9.605,1.877 9.605,8.893 0,3.986 -3.025,5.756 -7.047,5.761 -3.066,0.006 -5.582,-1.364 -7.277,-3.868 l 3.068,-2.291 c 1.072,1.478 2.506,2.764 4.465,2.764 1.621,0 2.729,-0.89 2.727,-2.176 0,-3.288 -9.596,-2.102 -9.604,-8.78 0,-3.583 3.029,-5.575 6.35,-5.579 2.549,0 5.096,0.951 6.75,2.913"
       id="path67"
       inkscape:connector-curvature="0"
       style="fill:#4c565c" /></g><g
     id="g69"
     transform="translate(-18.197,-34.461)"><path
       d="m 62.013,56.668 c -0.739,-1.596 -1.596,-2.75 -2.571,-3.458 -0.975,-0.709 -2.262,-1.064 -3.857,-1.064 -1.124,0 -2.107,0.273 -2.949,0.82 -0.843,0.548 -1.545,1.323 -2.107,2.328 -0.562,1.005 -0.983,2.224 -1.263,3.658 -0.282,1.434 -0.421,3.037 -0.421,4.811 0,3.37 0.599,6.045 1.796,8.025 1.197,1.981 2.86,2.971 4.989,2.971 2.01,0 3.613,-0.591 4.811,-1.773 1.197,-1.182 1.825,-2.705 1.884,-4.567 l -6.075,0 0,-5.144 11.973,0 0,16.185 -4.434,0 0,-3.282 c -1.302,1.419 -2.595,2.395 -3.881,2.927 -1.285,0.532 -2.771,0.798 -4.456,0.798 -2.187,0 -4.08,-0.407 -5.676,-1.219 -1.596,-0.813 -2.911,-1.936 -3.945,-3.37 -1.036,-1.433 -1.812,-3.119 -2.329,-5.055 -0.517,-1.936 -0.775,-4.042 -0.775,-6.318 0,-2.04 0.214,-4.072 0.643,-6.097 0.428,-2.024 1.159,-3.835 2.194,-5.432 1.035,-1.596 2.402,-2.896 4.102,-3.902 1.7,-1.004 3.835,-1.508 6.408,-1.508 1.596,0 3.03,0.208 4.3,0.621 1.271,0.414 2.387,0.983 3.348,1.707 0.961,0.725 1.766,1.582 2.417,2.572 0.65,0.991 1.168,2.077 1.551,3.259 l -5.677,1.507 z"
       id="path71"
       inkscape:connector-curvature="0"
       style="fill:#ffffff" /><path
       d="m 72.611,79.459 0,-32.013 21.195,0 0,5.143 -15.077,0 0,7.626 10.952,0 0,5.144 -10.952,0 0,8.957 15.563,0 0,5.144 -21.681,0 z"
       id="path73"
       inkscape:connector-curvature="0"
       style="fill:#ffffff" /><path
       d="m 122.094,63.452 c 0,5.262 -1.138,9.319 -3.414,12.172 -2.277,2.853 -5.616,4.279 -10.021,4.279 -4.405,0 -7.744,-1.426 -10.021,-4.279 -2.277,-2.853 -3.415,-6.91 -3.415,-12.172 0,-5.261 1.138,-9.318 3.415,-12.171 2.276,-2.852 5.615,-4.279 10.021,-4.279 4.405,0 7.744,1.427 10.021,4.279 2.276,2.853 3.414,6.91 3.414,12.171 z m -6.119,0 c 0,-3.783 -0.591,-6.613 -1.773,-8.491 -1.183,-1.877 -3.03,-2.815 -5.542,-2.815 -2.513,0 -4.36,0.938 -5.542,2.815 -1.184,1.877 -1.774,4.708 -1.774,8.491 -0.059,3.785 0.511,6.615 1.708,8.492 1.197,1.877 3.066,2.815 5.609,2.815 2.512,0 4.36,-0.938 5.542,-2.815 1.181,-1.877 1.772,-4.707 1.772,-8.492 z"
       id="path75"
       inkscape:connector-curvature="0"
       style="fill:#ffffff" /><path
       d="m 124.842,79.459 0,-32.013 6.119,0 0,26.87 13.923,0 0,5.144 -20.042,0 z"
       id="path77"
       inkscape:connector-curvature="0"
       style="fill:#ffffff" /><path
       d="m 153.752,47.401 7.627,0 9.089,32.059 -6.075,0 -1.774,-6.917 -10.109,0 -1.906,6.917 -6.074,0 9.222,-32.059 z m 0.089,20.086 7.45,0 -3.592,-13.922 -0.088,0 -3.77,13.922 z"
       id="path79"
       inkscape:connector-curvature="0"
       style="fill:#ffffff" /><path
       d="m 172.419,47.446 11.883,0 c 1.596,0 3.044,0.14 4.345,0.421 1.301,0.281 2.417,0.731 3.348,1.352 0.931,0.621 1.67,1.435 2.217,2.439 0.547,1.005 0.864,2.217 0.953,3.636 0,1.685 -0.37,3.148 -1.108,4.389 -0.74,1.242 -1.995,2.203 -3.77,2.882 1.035,0.414 1.907,0.865 2.617,1.353 0.709,0.488 1.285,1.049 1.729,1.685 0.443,0.636 0.761,1.397 0.953,2.284 0.192,0.887 0.288,1.936 0.288,3.148 0,1.242 -0.221,2.38 -0.665,3.414 -0.443,1.035 -1.146,1.922 -2.106,2.661 -0.96,0.739 -2.172,1.315 -3.636,1.729 -1.462,0.415 -3.214,0.621 -5.254,0.621 l -11.794,0 0,-32.014 z m 6.119,12.769 6.119,0 c 1.478,0 2.579,-0.369 3.304,-1.108 0.723,-0.738 1.085,-1.669 1.085,-2.793 0,-1.124 -0.362,-2.055 -1.085,-2.794 -0.725,-0.738 -1.826,-1.108 -3.304,-1.108 l -6.119,0 0,7.803 z m 0,14.278 6.119,0 c 1.773,0 3.066,-0.392 3.88,-1.175 0.813,-0.782 1.219,-1.943 1.219,-3.48 0,-1.537 -0.407,-2.697 -1.219,-3.48 -0.813,-0.783 -2.106,-1.175 -3.88,-1.175 l -6.119,0 0,9.31 z"
       id="path81"
       inkscape:connector-curvature="0"
       style="fill:#ffffff" /></g><g
     id="g83"
     transform="translate(-18.197,-34.461)"><path
       d="m 43.096,83.052 0.904,0 0,9.15 4.41,0 0,0.738 -5.313,0 0,-9.888 z"
       id="path85"
       inkscape:connector-curvature="0"
       style="fill:#ffffff" /><path
       d="m 53.587,92.94 -0.11,-0.862 c -0.21,0.163 -0.413,0.312 -0.609,0.438 -0.197,0.127 -0.395,0.232 -0.596,0.313 -0.201,0.083 -0.414,0.146 -0.637,0.185 -0.224,0.043 -0.473,0.063 -0.747,0.063 -0.557,0 -1.023,-0.162 -1.396,-0.485 -0.375,-0.324 -0.562,-0.782 -0.562,-1.378 0,-0.483 0.098,-0.881 0.294,-1.189 0.196,-0.311 0.486,-0.568 0.87,-0.773 0.384,-0.207 0.861,-0.382 1.431,-0.529 0.571,-0.145 1.226,-0.301 1.966,-0.466 l 0,-0.492 c 0,-0.476 -0.119,-0.831 -0.356,-1.067 -0.238,-0.239 -0.662,-0.357 -1.274,-0.357 -0.429,0 -0.814,0.111 -1.157,0.336 -0.343,0.224 -0.646,0.54 -0.911,0.953 L 49.245,87.3 c 0.311,-0.575 0.685,-0.988 1.123,-1.24 0.438,-0.25 0.945,-0.376 1.52,-0.376 0.813,0 1.414,0.174 1.801,0.521 0.388,0.345 0.583,0.916 0.583,1.712 l 0,3.725 c 0,0.184 0.007,0.386 0.02,0.609 0.014,0.225 0.043,0.454 0.089,0.691 l -0.794,0 z M 53.45,88.913 c -0.813,0.184 -1.463,0.361 -1.952,0.535 -0.489,0.174 -0.862,0.354 -1.123,0.541 -0.261,0.187 -0.43,0.379 -0.507,0.575 -0.078,0.197 -0.116,0.409 -0.116,0.636 0,0.393 0.118,0.695 0.356,0.906 0.237,0.209 0.543,0.313 0.917,0.313 0.383,0 0.794,-0.104 1.232,-0.313 0.438,-0.211 0.835,-0.499 1.191,-0.863 l 0,-2.33 z"
       id="path87"
       inkscape:connector-curvature="0"
       style="fill:#ffffff" /><path
       d="m 56.682,83.052 0.822,0 0,3.699 c 0.173,-0.184 0.342,-0.343 0.506,-0.48 0.165,-0.137 0.335,-0.248 0.513,-0.335 0.178,-0.087 0.366,-0.151 0.562,-0.192 0.196,-0.041 0.413,-0.062 0.65,-0.062 0.411,0 0.79,0.091 1.137,0.274 0.347,0.182 0.644,0.438 0.891,0.767 0.246,0.329 0.438,0.718 0.575,1.163 0.137,0.448 0.206,0.932 0.206,1.453 0,1.223 -0.245,2.152 -0.733,2.787 -0.489,0.635 -1.199,0.951 -2.13,0.951 -0.493,0 -0.931,-0.084 -1.315,-0.254 -0.383,-0.168 -0.708,-0.439 -0.972,-0.813 l -0.137,0.931 -0.575,0 0,-9.889 z m 0.822,8.066 c 0.136,0.184 0.275,0.354 0.417,0.516 0.142,0.158 0.299,0.299 0.473,0.416 0.173,0.119 0.361,0.211 0.562,0.274 0.201,0.065 0.429,0.096 0.684,0.096 0.356,0 0.665,-0.075 0.925,-0.226 0.26,-0.151 0.477,-0.358 0.651,-0.623 0.173,-0.266 0.301,-0.576 0.383,-0.932 0.082,-0.355 0.123,-0.74 0.123,-1.15 0,-0.467 -0.045,-0.89 -0.137,-1.273 -0.092,-0.383 -0.229,-0.715 -0.411,-0.993 -0.182,-0.278 -0.414,-0.495 -0.691,-0.651 -0.279,-0.154 -0.601,-0.232 -0.966,-0.232 -0.201,0 -0.406,0.043 -0.616,0.131 -0.21,0.086 -0.406,0.195 -0.589,0.328 -0.183,0.132 -0.347,0.272 -0.493,0.417 -0.146,0.147 -0.251,0.278 -0.314,0.397 l 0,3.505 z"
       id="path89"
       inkscape:connector-curvature="0"
       style="fill:#ffffff" /><path
       d="m 66.461,85.682 c 0.557,0 1.022,0.103 1.397,0.309 0.374,0.205 0.676,0.479 0.904,0.821 0.228,0.344 0.39,0.736 0.486,1.178 0.096,0.443 0.144,0.906 0.144,1.391 0,0.483 -0.048,0.947 -0.144,1.391 -0.096,0.442 -0.258,0.835 -0.486,1.178 -0.229,0.343 -0.53,0.615 -0.904,0.822 -0.375,0.205 -0.84,0.307 -1.397,0.307 -0.557,0 -1.022,-0.102 -1.397,-0.307 -0.375,-0.207 -0.676,-0.479 -0.904,-0.822 -0.228,-0.343 -0.39,-0.735 -0.486,-1.178 -0.096,-0.443 -0.144,-0.907 -0.144,-1.391 0,-0.484 0.048,-0.947 0.144,-1.391 0.096,-0.441 0.258,-0.834 0.486,-1.178 0.229,-0.342 0.53,-0.616 0.904,-0.821 0.374,-0.207 0.84,-0.309 1.397,-0.309 z m 0,0.657 c -0.74,0 -1.276,0.266 -1.609,0.795 -0.333,0.529 -0.5,1.278 -0.5,2.246 0,0.967 0.167,1.717 0.5,2.246 0.333,0.529 0.87,0.794 1.609,0.794 0.739,0 1.276,-0.265 1.609,-0.794 0.333,-0.529 0.5,-1.279 0.5,-2.246 0,-0.968 -0.167,-1.717 -0.5,-2.246 -0.333,-0.529 -0.869,-0.795 -1.609,-0.795 z"
       id="path91"
       inkscape:connector-curvature="0"
       style="fill:#ffffff" /><path
       d="m 70.953,92.94 0,-7.122 0.822,0 0,1.356 0.028,0 c 0.191,-0.439 0.467,-0.797 0.828,-1.075 0.361,-0.278 0.77,-0.418 1.226,-0.418 l 0.37,0 0,0.794 -0.37,0 c -0.229,0 -0.464,0.064 -0.706,0.192 -0.242,0.128 -0.465,0.302 -0.671,0.521 -0.205,0.219 -0.375,0.477 -0.507,0.773 -0.133,0.297 -0.199,0.615 -0.199,0.951 l 0,4.027 -0.821,0 z"
       id="path93"
       inkscape:connector-curvature="0"
       style="fill:#ffffff" /><path
       d="m 79.458,92.94 -0.11,-0.862 c -0.21,0.163 -0.413,0.312 -0.609,0.438 -0.197,0.127 -0.395,0.232 -0.596,0.313 -0.201,0.083 -0.414,0.146 -0.637,0.185 -0.224,0.043 -0.472,0.063 -0.747,0.063 -0.557,0 -1.022,-0.162 -1.396,-0.485 -0.375,-0.324 -0.562,-0.782 -0.562,-1.378 0,-0.483 0.098,-0.881 0.294,-1.189 0.196,-0.311 0.486,-0.568 0.87,-0.773 0.383,-0.207 0.86,-0.382 1.431,-0.529 0.57,-0.145 1.226,-0.301 1.965,-0.466 l 0,-0.492 c 0,-0.476 -0.119,-0.831 -0.356,-1.067 -0.238,-0.239 -0.662,-0.357 -1.274,-0.357 -0.429,0 -0.815,0.111 -1.157,0.336 -0.343,0.224 -0.646,0.54 -0.911,0.953 L 75.115,87.3 c 0.311,-0.575 0.685,-0.988 1.123,-1.24 0.438,-0.25 0.945,-0.376 1.521,-0.376 0.813,0 1.413,0.174 1.801,0.521 0.388,0.345 0.583,0.916 0.583,1.712 l 0,3.725 c 0,0.184 0.007,0.386 0.02,0.609 0.014,0.225 0.043,0.454 0.089,0.691 l -0.794,0 z m -0.136,-4.027 c -0.813,0.184 -1.464,0.361 -1.952,0.535 -0.489,0.174 -0.863,0.354 -1.123,0.541 -0.26,0.187 -0.43,0.379 -0.507,0.575 -0.077,0.197 -0.116,0.409 -0.116,0.636 0,0.393 0.118,0.695 0.356,0.906 0.237,0.209 0.543,0.313 0.917,0.313 0.383,0 0.794,-0.104 1.232,-0.313 0.438,-0.211 0.835,-0.499 1.192,-0.863 l 0,-2.33 z"
       id="path95"
       inkscape:connector-curvature="0"
       style="fill:#ffffff" /><path
       d="m 82.499,85.818 0,-2.327 0.822,0 0,2.327 1.562,0 0,0.657 -1.562,0 0,5.219 c 0,0.484 0.242,0.726 0.726,0.726 0.137,0 0.278,-0.013 0.425,-0.041 0.146,-0.028 0.282,-0.063 0.411,-0.109 l 0,0.686 c -0.137,0.019 -0.276,0.042 -0.418,0.075 -0.142,0.031 -0.28,0.047 -0.417,0.047 -0.584,0 -0.989,-0.098 -1.212,-0.293 -0.224,-0.197 -0.335,-0.515 -0.335,-0.953 l 0,-5.355 -1.068,0 0,-0.657 1.066,0 z"
       id="path97"
       inkscape:connector-curvature="0"
       style="fill:#ffffff" /><path
       d="m 88.525,85.682 c 0.557,0 1.022,0.103 1.397,0.309 0.374,0.205 0.675,0.479 0.904,0.821 0.228,0.344 0.39,0.736 0.486,1.178 0.096,0.443 0.144,0.906 0.144,1.391 0,0.483 -0.048,0.947 -0.144,1.391 -0.096,0.442 -0.258,0.835 -0.486,1.178 -0.229,0.343 -0.53,0.615 -0.904,0.822 -0.375,0.205 -0.84,0.307 -1.397,0.307 -0.558,0 -1.023,-0.102 -1.397,-0.307 -0.375,-0.207 -0.675,-0.479 -0.904,-0.822 -0.228,-0.343 -0.39,-0.735 -0.486,-1.178 -0.096,-0.443 -0.144,-0.907 -0.144,-1.391 0,-0.484 0.048,-0.947 0.144,-1.391 0.096,-0.441 0.258,-0.834 0.486,-1.178 0.229,-0.342 0.529,-0.616 0.904,-0.821 0.374,-0.207 0.84,-0.309 1.397,-0.309 z m 0,0.657 c -0.74,0 -1.276,0.266 -1.61,0.795 -0.333,0.529 -0.5,1.278 -0.5,2.246 0,0.967 0.167,1.717 0.5,2.246 0.333,0.529 0.87,0.794 1.61,0.794 0.739,0 1.275,-0.265 1.609,-0.794 0.333,-0.529 0.5,-1.279 0.5,-2.246 0,-0.968 -0.167,-1.717 -0.5,-2.246 -0.333,-0.53 -0.869,-0.795 -1.609,-0.795 z"
       id="path99"
       inkscape:connector-curvature="0"
       style="fill:#ffffff" /><path
       d="m 93.059,84.257 0,-1.205 0.822,0 0,1.205 -0.822,0 z m 0.821,8.683 -0.822,0 0,-7.122 0.822,0 0,7.122 z"
       id="path101"
       inkscape:connector-curvature="0"
       style="fill:#ffffff" /><path
       d="m 96.058,92.94 0,-7.122 0.821,0 0,1.356 0.028,0 c 0.192,-0.439 0.468,-0.797 0.828,-1.075 0.361,-0.278 0.77,-0.418 1.226,-0.418 l 0.37,0 0,0.794 -0.37,0 c -0.229,0 -0.463,0.064 -0.706,0.192 -0.242,0.128 -0.465,0.302 -0.671,0.521 -0.205,0.219 -0.375,0.477 -0.506,0.773 -0.133,0.297 -0.199,0.615 -0.199,0.951 l 0,4.027 -0.821,0 z"
       id="path103"
       inkscape:connector-curvature="0"
       style="fill:#ffffff" /><path
       d="m 100.865,89.406 c 0,0.403 0.043,0.787 0.13,1.151 0.086,0.365 0.221,0.686 0.404,0.959 0.182,0.273 0.419,0.493 0.712,0.657 0.292,0.164 0.639,0.246 1.041,0.246 0.229,0 0.432,-0.022 0.61,-0.069 0.178,-0.044 0.347,-0.122 0.506,-0.231 0.16,-0.109 0.315,-0.257 0.466,-0.438 0.15,-0.184 0.317,-0.415 0.5,-0.698 l 0.671,0.356 c -0.191,0.318 -0.383,0.589 -0.575,0.807 -0.191,0.221 -0.397,0.397 -0.616,0.535 -0.219,0.137 -0.461,0.236 -0.726,0.301 -0.265,0.064 -0.566,0.096 -0.904,0.096 -0.932,0 -1.671,-0.303 -2.219,-0.911 -0.548,-0.606 -0.821,-1.536 -0.821,-2.786 0,-0.549 0.068,-1.051 0.205,-1.508 0.137,-0.455 0.331,-0.847 0.582,-1.17 0.251,-0.324 0.557,-0.574 0.917,-0.754 0.36,-0.178 0.77,-0.267 1.226,-0.267 0.484,0 0.904,0.091 1.26,0.274 0.356,0.182 0.653,0.438 0.89,0.767 0.237,0.329 0.414,0.722 0.528,1.178 0.114,0.456 0.171,0.958 0.171,1.506 l -4.958,0 z m 4.136,-0.656 c -0.082,-0.739 -0.288,-1.324 -0.616,-1.753 -0.329,-0.43 -0.808,-0.648 -1.438,-0.658 -0.366,0 -0.678,0.08 -0.938,0.24 -0.26,0.158 -0.475,0.361 -0.644,0.603 -0.169,0.242 -0.294,0.504 -0.377,0.787 -0.082,0.282 -0.123,0.544 -0.123,0.781 l 4.136,0 z"
       id="path105"
       inkscape:connector-curvature="0"
       style="fill:#ffffff" /><path
       d="m 48.081,106.637 -0.575,0 -0.137,-0.931 c -0.265,0.374 -0.588,0.646 -0.972,0.813 -0.384,0.17 -0.822,0.254 -1.315,0.254 -0.931,0 -1.641,-0.316 -2.129,-0.951 -0.489,-0.636 -0.733,-1.564 -0.733,-2.787 0,-0.521 0.069,-1.005 0.205,-1.453 0.137,-0.446 0.329,-0.835 0.576,-1.163 0.247,-0.328 0.543,-0.584 0.89,-0.768 0.347,-0.183 0.726,-0.273 1.137,-0.273 0.475,0 0.879,0.086 1.212,0.26 0.333,0.174 0.673,0.444 1.02,0.809 l 0,-3.698 0.822,0 0,9.888 z m -0.822,-5.327 c -0.073,-0.12 -0.18,-0.252 -0.322,-0.398 -0.142,-0.145 -0.304,-0.285 -0.486,-0.417 -0.183,-0.133 -0.379,-0.241 -0.589,-0.329 -0.21,-0.086 -0.416,-0.13 -0.616,-0.13 -0.375,0 -0.698,0.077 -0.973,0.233 -0.273,0.154 -0.502,0.371 -0.685,0.65 -0.183,0.277 -0.319,0.609 -0.411,0.993 -0.091,0.383 -0.137,0.807 -0.137,1.272 0,0.411 0.041,0.795 0.123,1.15 0.083,0.356 0.21,0.667 0.384,0.932 0.173,0.266 0.39,0.473 0.65,0.624 0.26,0.149 0.568,0.226 0.925,0.226 0.502,0 0.917,-0.123 1.246,-0.37 0.329,-0.246 0.625,-0.558 0.89,-0.932 l 0,-3.504 z"
       id="path107"
       inkscape:connector-curvature="0"
       style="fill:#ffffff" /><path
       d="m 50.656,103.103 c 0,0.403 0.043,0.787 0.13,1.151 0.086,0.364 0.221,0.686 0.404,0.958 0.182,0.274 0.42,0.494 0.712,0.658 0.292,0.163 0.639,0.246 1.041,0.246 0.229,0 0.432,-0.022 0.609,-0.069 0.179,-0.044 0.347,-0.122 0.507,-0.231 0.16,-0.109 0.315,-0.257 0.466,-0.439 0.151,-0.182 0.317,-0.414 0.5,-0.697 l 0.671,0.356 c -0.192,0.318 -0.383,0.588 -0.575,0.807 -0.192,0.22 -0.397,0.396 -0.616,0.535 -0.219,0.136 -0.461,0.236 -0.726,0.301 -0.266,0.063 -0.566,0.096 -0.904,0.096 -0.932,0 -1.671,-0.303 -2.219,-0.911 -0.548,-0.606 -0.822,-1.536 -0.822,-2.787 0,-0.548 0.069,-1.05 0.205,-1.507 0.137,-0.456 0.331,-0.847 0.583,-1.17 0.251,-0.324 0.557,-0.575 0.917,-0.753 0.36,-0.18 0.77,-0.268 1.226,-0.268 0.483,0 0.904,0.091 1.26,0.273 0.356,0.184 0.653,0.439 0.89,0.768 0.237,0.329 0.414,0.722 0.528,1.178 0.114,0.456 0.171,0.958 0.171,1.506 l -4.958,0 z m 4.136,-0.657 c -0.082,-0.739 -0.288,-1.324 -0.617,-1.754 -0.328,-0.429 -0.808,-0.648 -1.438,-0.657 -0.366,0 -0.678,0.08 -0.938,0.239 -0.26,0.16 -0.475,0.361 -0.644,0.604 -0.168,0.242 -0.294,0.504 -0.376,0.786 -0.082,0.283 -0.123,0.544 -0.123,0.782 l 4.136,0 z"
       id="path109"
       inkscape:connector-curvature="0"
       style="fill:#ffffff" /><path
       d="M 66.981,99.625 C 66.907,99.313 66.803,99.02 66.666,98.741 66.529,98.462 66.355,98.22 66.145,98.014 65.935,97.809 65.688,97.647 65.406,97.529 65.122,97.41 64.799,97.35 64.433,97.35 c -0.438,0 -0.833,0.101 -1.185,0.301 -0.352,0.201 -0.653,0.491 -0.904,0.87 -0.251,0.379 -0.445,0.836 -0.582,1.37 -0.137,0.533 -0.205,1.135 -0.205,1.801 0,0.529 0.045,1.055 0.136,1.575 0.091,0.52 0.256,0.986 0.493,1.397 0.238,0.41 0.56,0.741 0.966,0.992 0.406,0.252 0.929,0.376 1.568,0.376 0.347,0 0.664,-0.061 0.952,-0.185 0.288,-0.123 0.532,-0.294 0.733,-0.513 0.201,-0.22 0.356,-0.473 0.465,-0.76 0.11,-0.288 0.165,-0.597 0.165,-0.926 l 0,-0.903 -2.493,0 0,-0.739 3.396,0 0,4.629 -0.781,0 0,-0.973 -0.027,0 c -0.292,0.383 -0.641,0.664 -1.048,0.842 -0.406,0.179 -0.952,0.268 -1.637,0.268 -0.548,0 -1.054,-0.111 -1.52,-0.335 -0.465,-0.225 -0.867,-0.55 -1.205,-0.979 -0.338,-0.429 -0.601,-0.959 -0.788,-1.589 -0.187,-0.63 -0.28,-1.356 -0.28,-2.178 0,-0.822 0.101,-1.549 0.301,-2.178 0.201,-0.63 0.475,-1.159 0.822,-1.588 0.347,-0.43 0.753,-0.756 1.219,-0.98 0.466,-0.224 0.964,-0.336 1.493,-0.336 0.457,0 0.872,0.072 1.246,0.213 0.375,0.143 0.703,0.338 0.986,0.59 0.283,0.25 0.518,0.553 0.705,0.903 0.187,0.353 0.322,0.737 0.404,1.157 l -0.847,0.153 z"
       id="path111"
       inkscape:connector-curvature="0"
       style="fill:#ffffff" /><path
       d="m 70.446,103.103 c 0,0.403 0.043,0.787 0.13,1.151 0.086,0.364 0.221,0.686 0.404,0.958 0.182,0.274 0.42,0.494 0.712,0.658 0.292,0.163 0.639,0.246 1.041,0.246 0.229,0 0.432,-0.022 0.609,-0.069 0.179,-0.044 0.347,-0.122 0.507,-0.231 0.16,-0.109 0.315,-0.257 0.466,-0.439 0.151,-0.182 0.317,-0.414 0.5,-0.697 l 0.671,0.356 c -0.192,0.318 -0.383,0.588 -0.575,0.807 -0.192,0.22 -0.397,0.396 -0.616,0.535 -0.219,0.136 -0.461,0.236 -0.726,0.301 -0.266,0.063 -0.566,0.096 -0.904,0.096 -0.932,0 -1.671,-0.303 -2.219,-0.911 -0.548,-0.606 -0.822,-1.536 -0.822,-2.787 0,-0.548 0.069,-1.05 0.205,-1.507 0.137,-0.456 0.331,-0.847 0.583,-1.17 0.251,-0.324 0.557,-0.575 0.917,-0.753 0.36,-0.18 0.77,-0.268 1.226,-0.268 0.483,0 0.904,0.091 1.26,0.273 0.356,0.184 0.653,0.439 0.89,0.768 0.237,0.329 0.414,0.722 0.528,1.178 0.114,0.456 0.171,0.958 0.171,1.506 l -4.958,0 z m 4.137,-0.657 c -0.082,-0.739 -0.288,-1.324 -0.617,-1.754 -0.328,-0.429 -0.808,-0.648 -1.438,-0.657 -0.366,0 -0.678,0.08 -0.938,0.239 -0.26,0.16 -0.475,0.361 -0.644,0.604 -0.168,0.242 -0.294,0.504 -0.376,0.786 -0.082,0.283 -0.123,0.544 -0.123,0.782 l 4.136,0 z m -0.315,-5.615 -1.876,1.889 -0.698,0 1.52,-1.889 1.054,0 z"
       id="path113"
       inkscape:connector-curvature="0"
       style="fill:#ffffff" /><path
       d="m 79.403,99.378 c 0.557,0 1.023,0.102 1.397,0.309 0.374,0.205 0.675,0.479 0.904,0.82 0.228,0.344 0.39,0.736 0.486,1.179 0.096,0.443 0.144,0.906 0.144,1.39 0,0.484 -0.048,0.947 -0.144,1.392 -0.096,0.442 -0.258,0.835 -0.486,1.177 -0.229,0.344 -0.53,0.616 -0.904,0.822 -0.375,0.205 -0.84,0.308 -1.397,0.308 -0.557,0 -1.022,-0.103 -1.397,-0.308 -0.375,-0.206 -0.675,-0.479 -0.904,-0.822 -0.228,-0.342 -0.39,-0.734 -0.486,-1.177 -0.096,-0.444 -0.144,-0.907 -0.144,-1.392 0,-0.483 0.048,-0.947 0.144,-1.39 0.096,-0.442 0.258,-0.835 0.486,-1.179 0.229,-0.342 0.529,-0.615 0.904,-0.82 0.375,-0.208 0.84,-0.309 1.397,-0.309 z m 0,0.657 c -0.739,0 -1.276,0.265 -1.609,0.794 -0.333,0.529 -0.5,1.279 -0.5,2.246 0,0.968 0.167,1.717 0.5,2.247 0.333,0.528 0.87,0.794 1.609,0.794 0.74,0 1.276,-0.266 1.609,-0.794 0.333,-0.53 0.5,-1.279 0.5,-2.247 0,-0.967 -0.167,-1.717 -0.5,-2.246 -0.333,-0.529 -0.869,-0.794 -1.609,-0.794 z"
       id="path115"
       inkscape:connector-curvature="0"
       style="fill:#ffffff" /><path
       d="m 89.415,99.98 c -0.183,0 -0.381,0.019 -0.596,0.055 -0.214,0.036 -0.395,0.128 -0.541,0.274 0.155,0.191 0.279,0.4 0.37,0.629 0.091,0.229 0.137,0.517 0.137,0.864 0,0.437 -0.074,0.813 -0.22,1.129 -0.146,0.316 -0.344,0.574 -0.596,0.774 -0.251,0.201 -0.543,0.348 -0.876,0.444 -0.333,0.096 -0.688,0.145 -1.062,0.145 -0.228,0 -0.431,-0.021 -0.609,-0.063 -0.178,-0.04 -0.358,-0.094 -0.541,-0.157 -0.228,0.083 -0.395,0.186 -0.5,0.309 -0.105,0.123 -0.157,0.249 -0.157,0.377 0,0.101 0.025,0.189 0.075,0.267 0.05,0.078 0.153,0.142 0.308,0.191 0.155,0.051 0.377,0.089 0.665,0.117 0.288,0.026 0.673,0.04 1.157,0.04 1.068,0 1.84,0.163 2.315,0.486 0.475,0.325 0.712,0.778 0.712,1.364 0,0.264 -0.055,0.513 -0.165,0.745 -0.11,0.233 -0.29,0.436 -0.541,0.61 -0.251,0.174 -0.584,0.312 -1,0.416 -0.416,0.106 -0.929,0.158 -1.541,0.158 -0.612,0 -1.119,-0.048 -1.521,-0.144 -0.402,-0.096 -0.719,-0.222 -0.952,-0.377 -0.232,-0.154 -0.397,-0.335 -0.493,-0.54 -0.096,-0.205 -0.144,-0.414 -0.144,-0.624 0,-0.311 0.082,-0.593 0.247,-0.85 0.164,-0.254 0.498,-0.474 1,-0.656 l 0,-0.028 c -0.265,-0.055 -0.489,-0.146 -0.671,-0.28 -0.183,-0.132 -0.274,-0.35 -0.274,-0.651 0,-0.145 0.032,-0.287 0.096,-0.424 0.064,-0.137 0.146,-0.258 0.247,-0.363 0.101,-0.104 0.214,-0.193 0.342,-0.268 0.128,-0.072 0.255,-0.122 0.383,-0.148 -0.32,-0.22 -0.57,-0.492 -0.753,-0.816 -0.182,-0.323 -0.273,-0.673 -0.273,-1.048 0,-0.785 0.253,-1.408 0.76,-1.869 0.506,-0.46 1.193,-0.691 2.062,-0.691 0.346,0 0.652,0.044 0.917,0.13 0.265,0.087 0.512,0.208 0.74,0.362 0.42,-0.419 0.917,-0.629 1.493,-0.629 l 0,0.74 z m -3.383,6.136 c -0.401,0 -0.737,0.034 -1.007,0.103 -0.269,0.069 -0.486,0.158 -0.65,0.268 -0.164,0.11 -0.281,0.237 -0.349,0.383 -0.068,0.146 -0.103,0.297 -0.103,0.453 0,0.346 0.175,0.629 0.527,0.85 0.352,0.218 0.897,0.327 1.637,0.327 0.895,0 1.543,-0.109 1.945,-0.327 0.401,-0.221 0.602,-0.518 0.602,-0.893 0,-0.145 -0.036,-0.289 -0.109,-0.43 -0.074,-0.143 -0.206,-0.268 -0.397,-0.377 -0.192,-0.11 -0.457,-0.196 -0.794,-0.261 -0.338,-0.064 -0.772,-0.096 -1.302,-0.096 z m -1.767,-4.26 c 0,0.311 0.05,0.577 0.151,0.803 0.1,0.223 0.234,0.407 0.404,0.554 0.169,0.146 0.365,0.253 0.589,0.322 0.224,0.067 0.459,0.103 0.705,0.103 0.575,0 1.027,-0.142 1.356,-0.425 0.329,-0.283 0.493,-0.734 0.493,-1.356 0,-0.63 -0.165,-1.09 -0.493,-1.383 -0.329,-0.291 -0.781,-0.438 -1.356,-0.438 -0.575,0 -1.027,0.165 -1.356,0.493 -0.328,0.328 -0.493,0.771 -0.493,1.327 z"
       id="path117"
       inkscape:connector-curvature="0"
       style="fill:#ffffff" /><path
       d="m 90.744,106.637 0,-7.122 0.822,0 0,1.356 0.028,0 c 0.191,-0.439 0.467,-0.797 0.828,-1.075 0.361,-0.278 0.77,-0.418 1.226,-0.418 l 0.37,0 0,0.794 -0.37,0 c -0.229,0 -0.464,0.063 -0.706,0.192 -0.242,0.128 -0.465,0.302 -0.671,0.52 -0.205,0.219 -0.375,0.478 -0.507,0.774 -0.133,0.296 -0.199,0.615 -0.199,0.951 l 0,4.027 -0.821,0 z"
       id="path119"
       inkscape:connector-curvature="0"
       style="fill:#ffffff" /><path
       d="m 99.249,106.637 -0.11,-0.862 c -0.21,0.163 -0.413,0.311 -0.609,0.438 -0.197,0.128 -0.395,0.233 -0.596,0.314 -0.201,0.082 -0.414,0.145 -0.637,0.185 -0.224,0.043 -0.473,0.063 -0.747,0.063 -0.557,0 -1.022,-0.162 -1.396,-0.485 -0.375,-0.324 -0.562,-0.783 -0.562,-1.378 0,-0.483 0.098,-0.881 0.294,-1.19 0.196,-0.309 0.486,-0.568 0.87,-0.773 0.383,-0.206 0.86,-0.381 1.431,-0.528 0.571,-0.145 1.226,-0.301 1.966,-0.466 l 0,-0.492 c 0,-0.476 -0.119,-0.831 -0.356,-1.068 -0.238,-0.238 -0.662,-0.356 -1.274,-0.356 -0.429,0 -0.815,0.111 -1.157,0.335 -0.343,0.225 -0.646,0.541 -0.911,0.953 l -0.548,-0.33 c 0.311,-0.574 0.685,-0.987 1.123,-1.239 0.438,-0.251 0.945,-0.376 1.52,-0.376 0.813,0 1.414,0.174 1.801,0.521 0.388,0.346 0.583,0.916 0.583,1.712 l 0,3.725 c 0,0.183 0.007,0.386 0.02,0.608 0.014,0.226 0.043,0.455 0.089,0.692 l -0.794,0 z m -0.137,-4.028 c -0.813,0.183 -1.463,0.361 -1.951,0.535 -0.489,0.174 -0.863,0.354 -1.123,0.541 -0.26,0.187 -0.43,0.379 -0.507,0.575 -0.077,0.197 -0.116,0.408 -0.116,0.636 0,0.393 0.118,0.694 0.356,0.905 0.237,0.21 0.543,0.314 0.917,0.314 0.383,0 0.794,-0.104 1.232,-0.314 0.438,-0.211 0.835,-0.498 1.191,-0.862 l 0,-2.33 z"
       id="path121"
       inkscape:connector-curvature="0"
       style="fill:#ffffff" /><path
       d="m 102.344,99.515 0.822,0 0,1.096 0.027,0 c 0.282,-0.41 0.596,-0.719 0.938,-0.924 0.343,-0.207 0.747,-0.309 1.212,-0.309 0.466,0 0.876,0.102 1.232,0.309 0.356,0.205 0.655,0.48 0.897,0.828 0.242,0.348 0.425,0.744 0.548,1.192 0.123,0.446 0.185,0.916 0.185,1.41 0,0.62 -0.068,1.16 -0.206,1.616 -0.137,0.455 -0.329,0.834 -0.575,1.137 -0.247,0.301 -0.543,0.527 -0.891,0.678 -0.348,0.151 -0.726,0.226 -1.137,0.226 -0.238,0 -0.454,-0.02 -0.65,-0.063 -0.196,-0.04 -0.383,-0.104 -0.562,-0.191 -0.178,-0.086 -0.349,-0.198 -0.513,-0.334 -0.165,-0.139 -0.333,-0.297 -0.506,-0.479 l 0,3.45 -0.822,0 0,-9.642 z m 0.823,5.329 c 0.063,0.118 0.169,0.249 0.315,0.396 0.146,0.146 0.31,0.285 0.493,0.417 0.182,0.134 0.378,0.243 0.588,0.33 0.21,0.087 0.416,0.129 0.616,0.129 0.74,0 1.292,-0.276 1.657,-0.829 0.365,-0.552 0.548,-1.325 0.548,-2.32 0,-0.366 -0.041,-0.725 -0.123,-1.076 -0.083,-0.351 -0.21,-0.664 -0.383,-0.937 -0.174,-0.275 -0.391,-0.496 -0.651,-0.665 -0.26,-0.169 -0.568,-0.254 -0.925,-0.254 -0.228,0 -0.434,0.034 -0.616,0.103 -0.182,0.068 -0.358,0.16 -0.527,0.273 -0.168,0.114 -0.333,0.252 -0.493,0.41 -0.16,0.161 -0.326,0.332 -0.5,0.516 l 0,3.507 z"
       id="path123"
       inkscape:connector-curvature="0"
       style="fill:#ffffff" /><path
       d="m 109.822,106.637 0,-9.889 0.822,0 0,3.89 c 0.383,-0.402 0.755,-0.712 1.116,-0.93 0.361,-0.221 0.801,-0.33 1.321,-0.33 0.74,0 1.276,0.205 1.609,0.617 0.333,0.41 0.5,1.003 0.5,1.779 l 0,4.862 -0.822,0 0,-4.78 c 0,-0.594 -0.105,-1.046 -0.315,-1.355 -0.21,-0.311 -0.589,-0.466 -1.137,-0.466 -0.219,0 -0.417,0.032 -0.596,0.096 -0.178,0.064 -0.354,0.156 -0.527,0.274 -0.173,0.117 -0.352,0.263 -0.534,0.432 -0.183,0.168 -0.388,0.353 -0.616,0.553 l 0,5.247 -0.821,0 z"
       id="path125"
       inkscape:connector-curvature="0"
       style="fill:#ffffff" /><path
       d="m 117.423,97.953 0,-1.205 0.822,0 0,1.205 -0.822,0 z m 0.822,8.684 -0.822,0 0,-7.122 0.822,0 0,7.122 z"
       id="path127"
       inkscape:connector-curvature="0"
       style="fill:#ffffff" /><path
       d="m 120.669,103.103 c 0,0.403 0.043,0.787 0.131,1.151 0.086,0.364 0.221,0.686 0.404,0.958 0.182,0.274 0.419,0.494 0.712,0.658 0.292,0.163 0.639,0.246 1.041,0.246 0.228,0 0.432,-0.022 0.609,-0.069 0.178,-0.044 0.347,-0.122 0.507,-0.231 0.16,-0.109 0.315,-0.257 0.466,-0.439 0.151,-0.182 0.317,-0.414 0.5,-0.697 l 0.671,0.356 c -0.192,0.318 -0.384,0.588 -0.575,0.807 -0.192,0.22 -0.397,0.396 -0.616,0.535 -0.219,0.136 -0.461,0.236 -0.726,0.301 -0.266,0.063 -0.566,0.096 -0.904,0.096 -0.932,0 -1.671,-0.303 -2.219,-0.911 -0.547,-0.606 -0.821,-1.536 -0.821,-2.787 0,-0.548 0.069,-1.05 0.205,-1.507 0.137,-0.456 0.331,-0.847 0.583,-1.17 0.25,-0.324 0.557,-0.575 0.917,-0.753 0.361,-0.18 0.77,-0.268 1.226,-0.268 0.484,0 0.904,0.091 1.26,0.273 0.356,0.184 0.652,0.439 0.89,0.768 0.237,0.328 0.414,0.722 0.528,1.178 0.113,0.456 0.171,0.958 0.171,1.506 l -4.96,0 z m 4.136,-0.657 c -0.082,-0.739 -0.287,-1.324 -0.616,-1.754 -0.328,-0.429 -0.808,-0.648 -1.438,-0.657 -0.366,0 -0.679,0.08 -0.938,0.239 -0.261,0.16 -0.475,0.361 -0.644,0.604 -0.169,0.243 -0.294,0.504 -0.376,0.786 -0.082,0.283 -0.124,0.544 -0.124,0.782 l 4.136,0 z"
       id="path129"
       inkscape:connector-curvature="0"
       style="fill:#ffffff" /><path
       d="m 131.38,106.637 0,-9.889 2.985,0 c 0.584,0 1.089,0.065 1.514,0.198 0.424,0.133 0.771,0.318 1.041,0.555 0.269,0.238 0.467,0.527 0.596,0.87 0.127,0.342 0.191,0.719 0.191,1.13 0,0.412 -0.064,0.788 -0.191,1.129 -0.128,0.344 -0.327,0.633 -0.596,0.871 -0.27,0.237 -0.617,0.422 -1.041,0.554 -0.425,0.134 -0.93,0.199 -1.514,0.199 l -2.082,0 0,4.383 -0.903,0 z m 0.904,-5.121 2.082,0 c 0.858,0 1.479,-0.173 1.863,-0.516 0.384,-0.341 0.575,-0.841 0.575,-1.499 0,-0.658 -0.191,-1.158 -0.575,-1.499 -0.384,-0.343 -1.005,-0.515 -1.863,-0.515 l -2.082,0 0,4.029 z"
       id="path131"
       inkscape:connector-curvature="0"
       style="fill:#ffffff" /><path
       d="m 139.501,106.637 0,-9.889 0.822,0 0,3.89 c 0.383,-0.402 0.755,-0.712 1.116,-0.93 0.36,-0.221 0.801,-0.33 1.321,-0.33 0.74,0 1.276,0.205 1.609,0.617 0.333,0.41 0.5,1.003 0.5,1.779 l 0,4.862 -0.822,0 0,-4.78 c 0,-0.594 -0.104,-1.046 -0.314,-1.355 -0.21,-0.311 -0.589,-0.466 -1.137,-0.466 -0.219,0 -0.417,0.032 -0.596,0.096 -0.178,0.064 -0.354,0.156 -0.527,0.274 -0.173,0.117 -0.352,0.263 -0.534,0.432 -0.183,0.168 -0.388,0.353 -0.616,0.553 l 0,5.247 -0.822,0 z"
       id="path133"
       inkscape:connector-curvature="0"
       style="fill:#ffffff" /><path
       d="m 149.02,105.308 0.027,0 1.986,-5.793 0.876,0 -2.657,7.629 c -0.119,0.347 -0.244,0.647 -0.376,0.903 -0.132,0.256 -0.286,0.466 -0.458,0.631 -0.173,0.165 -0.377,0.285 -0.61,0.363 -0.232,0.077 -0.509,0.115 -0.829,0.115 -0.182,0 -0.331,-0.006 -0.445,-0.02 -0.114,-0.014 -0.222,-0.034 -0.322,-0.063 l 0,-0.671 c 0.128,0.018 0.258,0.039 0.391,0.063 0.132,0.022 0.276,0.033 0.432,0.033 0.146,0 0.292,-0.033 0.438,-0.103 0.146,-0.07 0.29,-0.181 0.431,-0.335 0.142,-0.155 0.274,-0.358 0.397,-0.61 0.123,-0.252 0.235,-0.56 0.335,-0.925 l -2.479,-7.012 0.904,0 1.959,5.795 z"
       id="path135"
       inkscape:connector-curvature="0"
       style="fill:#ffffff" /><path
       d="m 153.02,104.91 c 0.164,0.238 0.329,0.435 0.493,0.59 0.164,0.154 0.336,0.278 0.514,0.37 0.178,0.091 0.363,0.154 0.555,0.191 0.191,0.037 0.406,0.055 0.644,0.055 0.229,0 0.438,-0.033 0.63,-0.103 0.191,-0.069 0.358,-0.165 0.5,-0.288 0.142,-0.122 0.254,-0.267 0.335,-0.431 0.083,-0.164 0.124,-0.343 0.124,-0.534 0,-0.348 -0.103,-0.615 -0.308,-0.803 -0.206,-0.186 -0.463,-0.336 -0.774,-0.451 -0.31,-0.113 -0.648,-0.213 -1.014,-0.294 -0.365,-0.082 -0.703,-0.194 -1.013,-0.336 -0.311,-0.142 -0.568,-0.331 -0.774,-0.568 -0.206,-0.237 -0.308,-0.566 -0.308,-0.985 0,-0.339 0.062,-0.629 0.185,-0.87 0.123,-0.242 0.288,-0.442 0.493,-0.603 0.205,-0.16 0.445,-0.279 0.719,-0.355 0.274,-0.078 0.562,-0.117 0.863,-0.117 0.603,0 1.098,0.111 1.486,0.336 0.388,0.223 0.709,0.541 0.965,0.952 l -0.63,0.437 c -0.238,-0.328 -0.498,-0.588 -0.781,-0.779 -0.283,-0.192 -0.639,-0.288 -1.068,-0.288 -0.402,0 -0.737,0.099 -1.006,0.294 -0.27,0.196 -0.404,0.514 -0.404,0.952 0,0.292 0.103,0.517 0.309,0.671 0.205,0.156 0.463,0.285 0.773,0.39 0.31,0.106 0.648,0.204 1.014,0.296 0.365,0.091 0.703,0.217 1.013,0.377 0.31,0.159 0.568,0.375 0.774,0.649 0.206,0.274 0.308,0.64 0.308,1.097 0,0.318 -0.068,0.604 -0.206,0.856 -0.137,0.25 -0.319,0.461 -0.548,0.629 -0.229,0.169 -0.491,0.299 -0.788,0.391 -0.297,0.092 -0.605,0.137 -0.924,0.137 -0.548,0 -1.06,-0.113 -1.534,-0.343 -0.475,-0.228 -0.882,-0.593 -1.219,-1.095 l 0.602,-0.427 z"
       id="path137"
       inkscape:connector-curvature="0"
       style="fill:#ffffff" /><path
       d="m 159.264,97.953 0,-1.205 0.822,0 0,1.205 -0.822,0 z m 0.822,8.684 -0.822,0 0,-7.122 0.822,0 0,7.122 z"
       id="path139"
       inkscape:connector-curvature="0"
       style="fill:#ffffff" /><path
       d="m 167.55,109.156 -0.822,0 0,-3.437 c -0.347,0.365 -0.687,0.632 -1.021,0.8 -0.333,0.17 -0.737,0.254 -1.212,0.254 -0.411,0 -0.79,-0.091 -1.137,-0.273 -0.347,-0.184 -0.644,-0.437 -0.89,-0.761 -0.247,-0.323 -0.438,-0.706 -0.576,-1.15 -0.137,-0.443 -0.205,-0.925 -0.205,-1.444 0,-1.215 0.244,-2.138 0.733,-2.767 0.488,-0.631 1.198,-0.945 2.129,-0.945 0.493,0 0.924,0.096 1.294,0.288 0.37,0.192 0.701,0.446 0.993,0.767 l 0.137,-0.918 0.575,0 0,9.586 z m -0.822,-7.779 c -0.137,-0.183 -0.276,-0.354 -0.418,-0.513 -0.142,-0.16 -0.299,-0.297 -0.473,-0.411 -0.174,-0.114 -0.36,-0.203 -0.561,-0.267 -0.201,-0.064 -0.43,-0.096 -0.685,-0.096 -0.356,0 -0.664,0.074 -0.924,0.225 -0.26,0.152 -0.477,0.357 -0.65,0.617 -0.174,0.26 -0.301,0.566 -0.384,0.917 -0.082,0.353 -0.124,0.733 -0.124,1.144 0,0.457 0.046,0.877 0.137,1.261 0.091,0.383 0.228,0.712 0.411,0.986 0.183,0.274 0.412,0.488 0.685,0.643 0.274,0.155 0.598,0.233 0.973,0.233 0.201,0 0.406,-0.042 0.616,-0.129 0.21,-0.087 0.406,-0.194 0.589,-0.323 0.183,-0.128 0.345,-0.265 0.486,-0.41 0.141,-0.146 0.249,-0.279 0.322,-0.397 l 0,-3.48 z"
       id="path141"
       inkscape:connector-curvature="0"
       style="fill:#ffffff" /><path
       d="m 175.302,99.515 0,7.122 -0.822,0 0,-1.122 c -0.383,0.4 -0.755,0.711 -1.116,0.931 -0.361,0.219 -0.801,0.328 -1.322,0.328 -0.74,0 -1.276,-0.205 -1.609,-0.616 -0.333,-0.411 -0.5,-1.004 -0.5,-1.78 l 0,-4.862 0.822,0 0,4.78 c 0,0.593 0.104,1.046 0.314,1.355 0.21,0.311 0.589,0.466 1.137,0.466 0.219,0 0.417,-0.031 0.596,-0.096 0.178,-0.063 0.354,-0.155 0.527,-0.274 0.173,-0.118 0.352,-0.26 0.535,-0.424 0.182,-0.165 0.388,-0.352 0.616,-0.562 l 0,-5.246 0.822,0 z"
       id="path143"
       inkscape:connector-curvature="0"
       style="fill:#ffffff" /><path
       d="m 177.74,103.103 c 0,0.403 0.043,0.787 0.13,1.151 0.086,0.364 0.221,0.686 0.404,0.958 0.183,0.274 0.42,0.494 0.712,0.658 0.292,0.163 0.639,0.246 1.041,0.246 0.229,0 0.432,-0.022 0.609,-0.069 0.179,-0.044 0.348,-0.122 0.507,-0.231 0.16,-0.109 0.315,-0.257 0.466,-0.439 0.151,-0.182 0.317,-0.414 0.5,-0.697 l 0.671,0.356 c -0.192,0.318 -0.383,0.588 -0.575,0.807 -0.191,0.22 -0.397,0.396 -0.616,0.535 -0.219,0.136 -0.461,0.236 -0.726,0.301 -0.265,0.063 -0.566,0.096 -0.904,0.096 -0.932,0 -1.671,-0.303 -2.219,-0.911 -0.548,-0.606 -0.821,-1.536 -0.821,-2.787 0,-0.548 0.068,-1.05 0.205,-1.507 0.137,-0.456 0.331,-0.847 0.582,-1.17 0.251,-0.324 0.557,-0.575 0.917,-0.753 0.36,-0.18 0.77,-0.268 1.226,-0.268 0.483,0 0.904,0.091 1.26,0.273 0.356,0.184 0.653,0.439 0.89,0.768 0.237,0.329 0.414,0.722 0.528,1.178 0.114,0.456 0.171,0.958 0.171,1.506 l -4.958,0 z m 4.136,-0.657 c -0.082,-0.739 -0.288,-1.324 -0.617,-1.754 -0.328,-0.429 -0.808,-0.648 -1.438,-0.657 -0.366,0 -0.678,0.08 -0.938,0.239 -0.26,0.16 -0.475,0.361 -0.644,0.604 -0.169,0.242 -0.294,0.504 -0.377,0.786 -0.082,0.283 -0.123,0.544 -0.123,0.782 l 4.137,0 z"
       id="path145"
       inkscape:connector-curvature="0"
       style="fill:#ffffff" /><path
       d="m 43.041,116.798 c 0,0.404 0.043,0.787 0.13,1.151 0.086,0.365 0.221,0.686 0.404,0.959 0.182,0.274 0.42,0.494 0.712,0.657 0.292,0.164 0.639,0.247 1.041,0.247 0.229,0 0.432,-0.022 0.609,-0.069 0.178,-0.045 0.347,-0.123 0.507,-0.232 0.16,-0.108 0.315,-0.256 0.466,-0.438 0.151,-0.182 0.317,-0.415 0.5,-0.698 l 0.671,0.357 c -0.192,0.318 -0.383,0.588 -0.575,0.807 -0.192,0.22 -0.397,0.396 -0.616,0.535 -0.219,0.136 -0.461,0.236 -0.726,0.301 -0.266,0.063 -0.566,0.096 -0.904,0.096 -0.932,0 -1.671,-0.303 -2.219,-0.912 -0.548,-0.605 -0.822,-1.535 -0.822,-2.786 0,-0.548 0.069,-1.05 0.205,-1.507 0.137,-0.456 0.331,-0.847 0.583,-1.17 0.251,-0.325 0.557,-0.575 0.917,-0.754 0.36,-0.179 0.77,-0.268 1.226,-0.268 0.484,0 0.904,0.092 1.26,0.274 0.356,0.182 0.653,0.439 0.89,0.767 0.237,0.329 0.414,0.723 0.528,1.179 0.113,0.455 0.171,0.958 0.171,1.505 l -4.958,0 z m 4.136,-0.656 c -0.082,-0.738 -0.288,-1.324 -0.617,-1.753 -0.328,-0.43 -0.808,-0.648 -1.438,-0.657 -0.366,0 -0.678,0.08 -0.938,0.239 -0.26,0.159 -0.475,0.361 -0.644,0.603 -0.168,0.242 -0.294,0.504 -0.376,0.787 -0.082,0.283 -0.123,0.544 -0.123,0.781 l 4.136,0 z"
       id="path147"
       inkscape:connector-curvature="0"
       style="fill:#ffffff" /><path
       d="m 49.78,113.21 0,-2.328 0.821,0 0,2.328 1.562,0 0,0.658 -1.562,0 0,5.219 c 0,0.483 0.242,0.726 0.726,0.726 0.137,0 0.278,-0.014 0.425,-0.042 0.146,-0.027 0.282,-0.063 0.411,-0.108 l 0,0.685 c -0.137,0.019 -0.276,0.043 -0.418,0.075 -0.142,0.032 -0.28,0.048 -0.417,0.048 -0.584,0 -0.989,-0.098 -1.212,-0.294 -0.224,-0.196 -0.335,-0.514 -0.335,-0.952 l 0,-5.355 -1.068,0 0,-0.658 1.067,0 z"
       id="path149"
       inkscape:connector-curvature="0"
       style="fill:#ffffff" /><path
       d="m 57.559,120.333 0,-9.889 5.643,0 0,0.738 -4.738,0 0,3.644 3.41,0 0,0.74 -3.41,0 0,4.027 4.999,0 0,0.739 -5.904,0 z"
       id="path151"
       inkscape:connector-curvature="0"
       style="fill:#ffffff" /><path
       d="m 64.927,120.333 0,-7.123 0.822,0 0,1.124 c 0.384,-0.402 0.755,-0.712 1.116,-0.931 0.361,-0.221 0.801,-0.33 1.322,-0.33 0.739,0 1.276,0.205 1.609,0.617 0.333,0.41 0.5,1.004 0.5,1.78 l 0,4.862 -0.822,0 0,-4.781 c 0,-0.593 -0.105,-1.045 -0.315,-1.354 -0.21,-0.311 -0.589,-0.466 -1.137,-0.466 -0.219,0 -0.417,0.032 -0.596,0.096 -0.178,0.064 -0.354,0.155 -0.527,0.273 -0.173,0.118 -0.352,0.264 -0.534,0.432 -0.183,0.168 -0.389,0.354 -0.617,0.554 l 0,5.247 -0.821,0 z"
       id="path153"
       inkscape:connector-curvature="0"
       style="fill:#ffffff" /><path
       d="m 71.611,113.21 0.876,0 1.945,5.862 0.027,0 1.972,-5.862 0.876,0 -2.452,7.123 -0.808,0 -2.436,-7.123 z"
       id="path155"
       inkscape:connector-curvature="0"
       style="fill:#ffffff" /><path
       d="m 78.609,111.648 0,-1.204 0.821,0 0,1.204 -0.821,0 z m 0.822,8.685 -0.821,0 0,-7.123 0.821,0 0,7.123 z"
       id="path157"
       inkscape:connector-curvature="0"
       style="fill:#ffffff" /><path
       d="m 81.609,120.333 0,-7.123 0.821,0 0,1.357 0.028,0 c 0.192,-0.439 0.468,-0.798 0.828,-1.076 0.361,-0.277 0.77,-0.418 1.226,-0.418 l 0.37,0 0,0.795 -0.37,0 c -0.229,0 -0.464,0.063 -0.706,0.191 -0.242,0.128 -0.465,0.302 -0.671,0.521 -0.205,0.219 -0.375,0.478 -0.507,0.773 -0.132,0.297 -0.199,0.615 -0.199,0.952 l 0,4.027 -0.82,0 z"
       id="path159"
       inkscape:connector-curvature="0"
       style="fill:#ffffff" /><path
       d="m 88.524,113.073 c 0.557,0 1.023,0.103 1.397,0.309 0.374,0.205 0.675,0.479 0.904,0.821 0.228,0.344 0.39,0.736 0.486,1.179 0.096,0.442 0.144,0.906 0.144,1.39 0,0.484 -0.048,0.947 -0.144,1.391 -0.096,0.443 -0.258,0.835 -0.486,1.178 -0.229,0.343 -0.53,0.616 -0.904,0.822 -0.375,0.205 -0.84,0.308 -1.397,0.308 -0.557,0 -1.022,-0.103 -1.397,-0.308 -0.375,-0.206 -0.675,-0.479 -0.904,-0.822 -0.228,-0.343 -0.39,-0.734 -0.486,-1.178 -0.096,-0.443 -0.144,-0.907 -0.144,-1.391 0,-0.484 0.048,-0.947 0.144,-1.39 0.096,-0.442 0.258,-0.835 0.486,-1.179 0.229,-0.342 0.529,-0.616 0.904,-0.821 0.375,-0.206 0.84,-0.309 1.397,-0.309 z m 0,0.658 c -0.739,0 -1.276,0.265 -1.609,0.794 -0.333,0.529 -0.5,1.278 -0.5,2.246 0,0.968 0.167,1.717 0.5,2.247 0.333,0.528 0.87,0.794 1.609,0.794 0.74,0 1.276,-0.266 1.61,-0.794 0.333,-0.53 0.5,-1.279 0.5,-2.247 0,-0.968 -0.167,-1.717 -0.5,-2.246 -0.334,-0.529 -0.87,-0.794 -1.61,-0.794 z"
       id="path161"
       inkscape:connector-curvature="0"
       style="fill:#ffffff" /><path
       d="m 93.072,120.333 0,-7.123 0.822,0 0,1.124 c 0.383,-0.402 0.755,-0.712 1.116,-0.931 0.361,-0.221 0.801,-0.33 1.321,-0.33 0.74,0 1.276,0.205 1.609,0.617 0.333,0.41 0.5,1.004 0.5,1.78 l 0,4.862 -0.822,0 0,-4.781 c 0,-0.593 -0.105,-1.045 -0.315,-1.354 -0.21,-0.311 -0.589,-0.466 -1.137,-0.466 -0.219,0 -0.417,0.032 -0.596,0.096 -0.178,0.064 -0.354,0.155 -0.527,0.273 -0.173,0.118 -0.352,0.264 -0.534,0.432 -0.182,0.168 -0.388,0.354 -0.616,0.554 l 0,5.247 -0.821,0 z"
       id="path163"
       inkscape:connector-curvature="0"
       style="fill:#ffffff" /><path
       d="m 100.687,120.333 0,-7.123 0.822,0 0,1.124 c 0.384,-0.402 0.755,-0.712 1.116,-0.931 0.361,-0.221 0.801,-0.33 1.322,-0.33 0.739,0 1.276,0.205 1.609,0.617 0.333,0.41 0.5,1.004 0.5,1.78 l 0,4.862 -0.822,0 0,-4.781 c 0,-0.593 -0.105,-1.045 -0.315,-1.354 -0.21,-0.311 -0.589,-0.466 -1.137,-0.466 -0.219,0 -0.417,0.032 -0.596,0.096 -0.178,0.064 -0.354,0.155 -0.527,0.273 -0.173,0.118 -0.352,0.264 -0.534,0.432 -0.183,0.168 -0.389,0.354 -0.617,0.554 l 0,5.247 -0.821,0 z"
       id="path165"
       inkscape:connector-curvature="0"
       style="fill:#ffffff" /><path
       d="m 108.494,116.798 c 0,0.404 0.043,0.787 0.13,1.151 0.086,0.365 0.221,0.686 0.404,0.959 0.182,0.274 0.42,0.494 0.712,0.657 0.292,0.164 0.639,0.247 1.041,0.247 0.229,0 0.432,-0.022 0.609,-0.069 0.179,-0.045 0.347,-0.123 0.507,-0.232 0.16,-0.108 0.315,-0.256 0.466,-0.438 0.151,-0.182 0.317,-0.415 0.5,-0.698 l 0.671,0.357 c -0.192,0.318 -0.383,0.588 -0.575,0.807 -0.192,0.22 -0.397,0.396 -0.616,0.535 -0.219,0.136 -0.461,0.236 -0.726,0.301 -0.266,0.063 -0.566,0.096 -0.904,0.096 -0.932,0 -1.671,-0.303 -2.219,-0.912 -0.548,-0.605 -0.822,-1.535 -0.822,-2.786 0,-0.548 0.069,-1.05 0.205,-1.507 0.137,-0.456 0.331,-0.847 0.583,-1.17 0.251,-0.325 0.557,-0.575 0.917,-0.754 0.36,-0.179 0.77,-0.268 1.226,-0.268 0.483,0 0.904,0.092 1.26,0.274 0.356,0.182 0.653,0.439 0.89,0.767 0.237,0.329 0.414,0.723 0.528,1.179 0.114,0.455 0.171,0.958 0.171,1.505 l -4.958,0 z m 4.136,-0.656 c -0.082,-0.738 -0.288,-1.324 -0.617,-1.753 -0.328,-0.43 -0.808,-0.648 -1.438,-0.657 -0.366,0 -0.678,0.08 -0.938,0.239 -0.26,0.159 -0.475,0.361 -0.644,0.603 -0.168,0.242 -0.294,0.504 -0.376,0.787 -0.082,0.283 -0.123,0.544 -0.123,0.781 l 4.136,0 z"
       id="path167"
       inkscape:connector-curvature="0"
       style="fill:#ffffff" /><path
       d="m 115.15,120.333 0,-7.123 0.822,0 0,1.083 c 0.182,-0.192 0.356,-0.363 0.521,-0.514 0.165,-0.151 0.338,-0.278 0.521,-0.384 0.182,-0.104 0.381,-0.186 0.596,-0.239 0.214,-0.055 0.459,-0.083 0.732,-0.083 0.402,0 0.765,0.117 1.089,0.35 0.324,0.233 0.537,0.551 0.637,0.952 0.319,-0.374 0.664,-0.685 1.034,-0.932 0.37,-0.246 0.81,-0.37 1.321,-0.37 0.63,0 1.1,0.165 1.411,0.493 0.311,0.329 0.466,0.809 0.466,1.438 l 0,5.328 -0.822,0 0,-5.41 c 0,-0.401 -0.105,-0.701 -0.315,-0.897 -0.21,-0.196 -0.516,-0.294 -0.917,-0.294 -0.155,0 -0.334,0.038 -0.535,0.115 -0.2,0.078 -0.399,0.181 -0.596,0.309 -0.196,0.129 -0.381,0.272 -0.554,0.432 -0.174,0.16 -0.315,0.326 -0.425,0.499 l 0,5.247 -0.822,0 0,-5.41 c 0,-0.401 -0.105,-0.701 -0.315,-0.897 -0.21,-0.196 -0.516,-0.294 -0.918,-0.294 -0.155,0 -0.333,0.038 -0.534,0.115 -0.201,0.078 -0.4,0.181 -0.596,0.309 -0.197,0.129 -0.381,0.272 -0.555,0.432 -0.174,0.16 -0.315,0.326 -0.425,0.499 l 0,5.247 -0.821,0 z"
       id="path169"
       inkscape:connector-curvature="0"
       style="fill:#ffffff" /><path
       d="m 126.75,116.798 c 0,0.404 0.043,0.787 0.13,1.151 0.086,0.365 0.221,0.686 0.404,0.959 0.182,0.274 0.42,0.494 0.712,0.657 0.292,0.164 0.639,0.247 1.041,0.247 0.229,0 0.432,-0.022 0.609,-0.069 0.178,-0.045 0.347,-0.123 0.507,-0.232 0.16,-0.108 0.315,-0.256 0.466,-0.438 0.151,-0.182 0.317,-0.415 0.5,-0.698 l 0.671,0.357 c -0.192,0.318 -0.383,0.588 -0.575,0.807 -0.192,0.22 -0.397,0.396 -0.616,0.535 -0.219,0.136 -0.461,0.236 -0.726,0.301 -0.266,0.063 -0.566,0.096 -0.904,0.096 -0.932,0 -1.671,-0.303 -2.219,-0.912 -0.548,-0.605 -0.822,-1.535 -0.822,-2.786 0,-0.548 0.069,-1.05 0.205,-1.507 0.137,-0.456 0.331,-0.847 0.583,-1.17 0.251,-0.325 0.557,-0.575 0.917,-0.754 0.36,-0.179 0.77,-0.268 1.226,-0.268 0.484,0 0.904,0.092 1.26,0.274 0.356,0.182 0.653,0.439 0.89,0.767 0.237,0.329 0.414,0.723 0.528,1.179 0.113,0.455 0.171,0.958 0.171,1.505 l -4.958,0 z m 4.136,-0.656 c -0.082,-0.738 -0.288,-1.324 -0.617,-1.753 -0.328,-0.43 -0.808,-0.648 -1.438,-0.657 -0.366,0 -0.678,0.08 -0.938,0.239 -0.26,0.159 -0.475,0.361 -0.644,0.603 -0.169,0.242 -0.294,0.504 -0.376,0.787 -0.082,0.283 -0.123,0.544 -0.123,0.781 l 4.136,0 z"
       id="path171"
       inkscape:connector-curvature="0"
       style="fill:#ffffff" /><path
       d="m 133.406,120.333 0,-7.123 0.822,0 0,1.124 c 0.383,-0.402 0.755,-0.712 1.116,-0.931 0.361,-0.221 0.801,-0.33 1.321,-0.33 0.74,0 1.276,0.205 1.609,0.617 0.333,0.41 0.5,1.004 0.5,1.78 l 0,4.862 -0.822,0 0,-4.781 c 0,-0.593 -0.105,-1.045 -0.315,-1.354 -0.21,-0.311 -0.589,-0.466 -1.137,-0.466 -0.219,0 -0.417,0.032 -0.596,0.096 -0.178,0.064 -0.354,0.155 -0.527,0.273 -0.173,0.118 -0.352,0.264 -0.534,0.432 -0.182,0.168 -0.388,0.354 -0.616,0.554 l 0,5.247 -0.821,0 z"
       id="path173"
       inkscape:connector-curvature="0"
       style="fill:#ffffff" /><path
       d="m 141.104,113.21 0,-2.328 0.821,0 0,2.328 1.562,0 0,0.658 -1.562,0 0,5.219 c 0,0.483 0.242,0.726 0.726,0.726 0.137,0 0.278,-0.014 0.425,-0.042 0.146,-0.027 0.283,-0.063 0.411,-0.108 l 0,0.685 c -0.137,0.019 -0.276,0.043 -0.418,0.075 -0.142,0.032 -0.28,0.048 -0.417,0.048 -0.584,0 -0.988,-0.098 -1.212,-0.294 -0.224,-0.196 -0.335,-0.514 -0.335,-0.952 l 0,-5.355 -1.068,0 0,-0.658 1.067,0 z"
       id="path175"
       inkscape:connector-curvature="0"
       style="fill:#ffffff" /><path
       d="m 148.719,120.333 -0.11,-0.863 c -0.21,0.164 -0.413,0.312 -0.609,0.438 -0.197,0.128 -0.396,0.232 -0.596,0.314 -0.201,0.082 -0.414,0.145 -0.637,0.185 -0.224,0.042 -0.473,0.063 -0.747,0.063 -0.557,0 -1.023,-0.163 -1.397,-0.486 -0.374,-0.324 -0.562,-0.782 -0.562,-1.377 0,-0.484 0.098,-0.881 0.294,-1.19 0.196,-0.311 0.486,-0.568 0.87,-0.773 0.384,-0.206 0.86,-0.382 1.431,-0.528 0.571,-0.146 1.226,-0.301 1.966,-0.466 l 0,-0.493 c 0,-0.475 -0.119,-0.83 -0.356,-1.067 -0.237,-0.239 -0.662,-0.356 -1.274,-0.356 -0.429,0 -0.814,0.111 -1.157,0.335 -0.343,0.224 -0.646,0.541 -0.911,0.953 l -0.548,-0.33 c 0.311,-0.575 0.685,-0.987 1.123,-1.239 0.438,-0.251 0.945,-0.377 1.52,-0.377 0.813,0 1.414,0.174 1.801,0.521 0.388,0.346 0.583,0.916 0.583,1.712 l 0,3.726 c 0,0.183 0.006,0.386 0.02,0.608 0.014,0.225 0.043,0.454 0.089,0.692 l -0.793,0 z m -0.137,-4.027 c -0.813,0.183 -1.463,0.361 -1.952,0.535 -0.489,0.174 -0.863,0.354 -1.123,0.54 -0.261,0.188 -0.43,0.379 -0.507,0.575 -0.078,0.197 -0.116,0.409 -0.116,0.637 0,0.393 0.118,0.694 0.356,0.905 0.237,0.209 0.542,0.314 0.917,0.314 0.384,0 0.795,-0.105 1.233,-0.314 0.438,-0.211 0.835,-0.498 1.191,-0.863 l 0,-2.329 z"
       id="path177"
       inkscape:connector-curvature="0"
       style="fill:#ffffff" /><path
       d="m 151.664,110.444 0.821,0 0,9.889 -0.821,0 0,-9.889 z"
       id="path179"
       inkscape:connector-curvature="0"
       style="fill:#ffffff" /><path
       d="m 154.909,116.798 c 0,0.404 0.043,0.787 0.13,1.151 0.086,0.365 0.221,0.686 0.404,0.959 0.183,0.274 0.42,0.494 0.712,0.657 0.292,0.164 0.639,0.247 1.041,0.247 0.229,0 0.432,-0.022 0.609,-0.069 0.179,-0.045 0.347,-0.123 0.507,-0.232 0.16,-0.108 0.315,-0.256 0.466,-0.438 0.151,-0.182 0.317,-0.415 0.5,-0.698 l 0.671,0.357 c -0.192,0.318 -0.383,0.588 -0.575,0.807 -0.192,0.22 -0.397,0.396 -0.616,0.535 -0.219,0.136 -0.461,0.236 -0.726,0.301 -0.266,0.063 -0.566,0.096 -0.904,0.096 -0.932,0 -1.671,-0.303 -2.219,-0.912 -0.548,-0.605 -0.822,-1.535 -0.822,-2.786 0,-0.548 0.069,-1.05 0.205,-1.507 0.137,-0.456 0.331,-0.847 0.583,-1.17 0.251,-0.325 0.557,-0.575 0.917,-0.754 0.36,-0.179 0.77,-0.268 1.226,-0.268 0.483,0 0.904,0.092 1.26,0.274 0.356,0.183 0.653,0.439 0.89,0.767 0.237,0.329 0.414,0.723 0.528,1.179 0.114,0.455 0.171,0.958 0.171,1.505 l -4.958,0 z m 4.136,-0.656 c -0.082,-0.738 -0.288,-1.324 -0.617,-1.753 -0.328,-0.43 -0.808,-0.648 -1.438,-0.657 -0.366,0 -0.678,0.08 -0.938,0.239 -0.26,0.159 -0.475,0.361 -0.644,0.603 -0.169,0.242 -0.294,0.504 -0.377,0.787 -0.082,0.283 -0.123,0.544 -0.123,0.781 l 4.137,0 z"
       id="path181"
       inkscape:connector-curvature="0"
       style="fill:#ffffff" /></g></svg>