<?xml version="1.0" encoding="UTF-8" standalone="no"?>
<!-- Created with Inkscape (http://www.inkscape.org/) -->

<svg
   xmlns:dc="http://purl.org/dc/elements/1.1/"
   xmlns:cc="http://creativecommons.org/ns#"
   xmlns:rdf="http://www.w3.org/1999/02/22-rdf-syntax-ns#"
   xmlns:svg="http://www.w3.org/2000/svg"
   xmlns="http://www.w3.org/2000/svg"
   xmlns:sodipodi="http://sodipodi.sourceforge.net/DTD/sodipodi-0.dtd"
   xmlns:inkscape="http://www.inkscape.org/namespaces/inkscape"
   width="75.481262"
   height="100.45172"
   id="svg6738"
   sodipodi:version="0.32"
   inkscape:version="0.91 r13725"
   version="1.0"
   sodipodi:docname="Région_Limousin_logo.svg"
   inkscape:output_extension="org.inkscape.output.svg.inkscape">
  <defs
     id="defs6740">
    <clipPath
       clipPathUnits="userSpaceOnUse"
       id="clipPath787">
      <path
         d="m 0,0 850.394,0 0,595.276 L 0,595.276 0,0 Z"
         id="path789"
         inkscape:connector-curvature="0" />
    </clipPath>
    <clipPath
       clipPathUnits="userSpaceOnUse"
       id="clipPath827">
      <path
         d="m 0,0 850.394,0 0,595.276 L 0,595.276 0,0 Z"
         id="path829"
         inkscape:connector-curvature="0" />
    </clipPath>
    <inkscape:perspective
       sodipodi:type="inkscape:persp3d"
       inkscape:vp_x="0 : 526.18109 : 1"
       inkscape:vp_y="0 : 1000 : 0"
       inkscape:vp_z="744.09448 : 526.18109 : 1"
       inkscape:persp3d-origin="372.04724 : 350.78739 : 1"
       id="perspective6746" />
  </defs>
  <sodipodi:namedview
     id="base"
     pagecolor="#ffffff"
     bordercolor="#666666"
     borderopacity="1.0"
     inkscape:pageopacity="0.0"
     inkscape:pageshadow="2"
     inkscape:zoom="7.4558824"
     inkscape:cx="-0.85502942"
     inkscape:cy="55.319567"
     inkscape:document-units="px"
     inkscape:current-layer="layer1"
     showgrid="false"
     inkscape:window-width="1920"
     inkscape:window-height="1025"
     inkscape:window-x="-2"
     inkscape:window-y="-3"
     fit-margin-top="0"
     fit-margin-left="0"
     fit-margin-right="0"
     fit-margin-bottom="0"
     inkscape:window-maximized="1" />
  <metadata
     id="metadata6743">
    <rdf:RDF>
      <cc:Work
         rdf:about="">
        <dc:format>image/svg+xml</dc:format>
        <dc:type
           rdf:resource="http://purl.org/dc/dcmitype/StillImage" />
        <dc:title></dc:title>
      </cc:Work>
    </rdf:RDF>
  </metadata>
  <g
     inkscape:label="Calque 1"
     inkscape:groupmode="layer"
     id="layer1"
     transform="translate(-334.51438,-397.37591)">
    <path
       d="m 409.99564,497.82763 -75.48126,0 0,-100.45172 75.48126,0 0,100.45172 z"
       style="fill:#00a650;fill-opacity:1;fill-rule:nonzero;stroke:none"
       id="path777"
       inkscape:connector-curvature="0" />
    <g
       id="g779"
       transform="matrix(1.8503484,0,0,-1.8503484,335.4551,496.8845)">
      <path
         d="m 0,0 0,53.272 39.779,0 0,-53.164 L 39.779,0 0,0 Z m 39.669,0.108 0,0.11 0,-0.11 z m -39.451,0.11 39.343,0 -10e-4,52.836 -39.342,0 0,-52.836 z"
         style="fill:#ffffff;fill-opacity:1;fill-rule:nonzero;stroke:none"
         id="path781"
         inkscape:connector-curvature="0" />
    </g>
    <g
       transform="matrix(1.8503484,0,0,-1.8503484,-1135.1859,520.87557)"
       id="g783">
      <g
         id="g785"
         clip-path="url(#clipPath787)">
        <g
           id="g791"
           transform="translate(824.532,19.5934)">
          <path
             d="m 0,0 c -0.254,0.196 -0.976,0.542 -1.682,0.542 -0.704,0 -2.093,-0.28 -2.06,-2.035 0.022,-1.214 0.938,-1.379 1.26,-1.478 0.319,-0.099 1.154,0 1.154,-0.74 0,-0.606 -0.562,-0.526 -0.865,-0.526 -0.307,0 -0.706,0.197 -1.108,0.56 -0.126,-0.295 -0.591,-1.15 -0.591,-1.15 0.256,-0.214 0.913,-0.77 1.777,-0.77 0.866,0 2.403,0.473 2.389,2.001 -0.01,0.74 -0.193,1.281 -1.059,1.658 -0.865,0.38 -1.386,0.101 -1.345,0.757 0.015,0.263 0.226,0.46 0.559,0.46 0.34,0 0.706,-0.164 0.995,-0.411 C -0.465,-0.968 -0.143,-0.229 0,0"
             style="fill:#ffffff;fill-opacity:1;fill-rule:nonzero;stroke:none"
             id="path793"
             inkscape:connector-curvature="0" />
        </g>
        <g
           id="g795"
           transform="translate(820.3845,16.3437)">
          <path
             d="m 0,0 c 0,-1.258 -1.021,-2.294 -2.271,-2.294 -1.253,0 -2.218,0.938 -2.218,2.195 l -0.015,3.726 1.373,-0.024 0.017,-3.615 0.011,0 c 0,-0.474 0.384,-0.87 0.856,-0.87 0.472,0 0.861,0.396 0.861,0.87 L -1.381,3.693 -0.007,3.669 0,0 Z"
             style="fill:#ffffff;fill-opacity:1;fill-rule:nonzero;stroke:none"
             id="path797"
             inkscape:connector-curvature="0" />
        </g>
        <g
           id="g799"
           transform="translate(812.2261,20.0938)">
          <path
             d="m 0,0 c -1.615,0 -2.924,-1.343 -2.924,-2.995 0,-1.655 1.309,-2.997 2.924,-2.997 1.615,0 2.922,1.342 2.922,2.997 C 2.922,-1.343 1.615,0 0,0 m 0.004,-4.541 c -0.849,0 -1.54,0.707 -1.54,1.579 0,0.873 0.691,1.578 1.54,1.578 0.852,0 1.541,-0.705 1.541,-1.578 0,-0.872 -0.689,-1.579 -1.541,-1.579"
             style="fill:#ffffff;fill-opacity:1;fill-rule:nonzero;stroke:none"
             id="path801"
             inkscape:connector-curvature="0" />
        </g>
      </g>
    </g>
    <g
       id="g803"
       transform="matrix(1.8503484,0,0,-1.8503484,402.55354,488.97946)">
      <path
         d="m 0,0 0.018,2.779 1.372,0.02 -10e-4,-5.663 -0.263,0 -3.15,2.593 0,-2.593 -1.37,0 -0.002,5.663 0.172,-0.02 L 0,0 Z"
         style="fill:#ffffff;fill-opacity:1;fill-rule:nonzero;stroke:none"
         id="path805"
         inkscape:connector-curvature="0" />
    </g>
    <g
       id="g807"
       transform="matrix(1.8503484,0,0,-1.8503484,356.47335,486.97368)">
      <path
         d="m 0,0 2.566,1.695 0.172,0.02 -0.003,-5.663 -1.368,0 0,3.036 -1.416,-0.871 -1.35,0.871 0,-3.036 -1.369,0 0,5.663 0.17,-0.02 L 0,0 Z"
         style="fill:#ffffff;fill-opacity:1;fill-rule:nonzero;stroke:none"
         id="path809"
         inkscape:connector-curvature="0" />
    </g>
    <g
       id="g811"
       transform="matrix(1.8503484,0,0,-1.8503484,347.30066,483.88952)">
      <path
         d="M 0,0 0,-5.715 1.37,-5.739 1.347,-0.026 0,0 Z"
         style="fill:#ffffff;fill-opacity:1;fill-rule:nonzero;stroke:none"
         id="path813"
         inkscape:connector-curvature="0" />
    </g>
    <g
       id="g815"
       transform="matrix(1.8503484,0,0,-1.8503484,392.40342,483.88952)">
      <path
         d="M 0,0 0,-5.715 1.369,-5.739 1.346,-0.026 0,0 Z"
         style="fill:#ffffff;fill-opacity:1;fill-rule:nonzero;stroke:none"
         id="path817"
         inkscape:connector-curvature="0" />
    </g>
    <g
       id="g819"
       transform="matrix(1.8503484,0,0,-1.8503484,339.38319,483.79996)">
      <path
         d="m 0,0 0,-5.713 3.606,0 0,1.427 -2.235,0 L 1.347,-0.048 0,0 Z"
         style="fill:#ffffff;fill-opacity:1;fill-rule:nonzero;stroke:none"
         id="path821"
         inkscape:connector-curvature="0" />
    </g>
    <g
       transform="matrix(1.8503484,0,0,-1.8503484,-1135.1859,520.87557)"
       id="g823">
      <g
         id="g825"
         clip-path="url(#clipPath827)">
        <g
           id="g831"
           transform="translate(814.9583,24.5408)">
          <path
             d="m 0,0 c 0.041,-0.001 0.077,-0.005 0.108,-0.006 0.063,-0.003 0.104,-0.008 0.126,-0.017 0.148,-0.055 0.261,-0.133 0.339,-0.23 0.073,-0.099 0.11,-0.222 0.11,-0.366 0,-0.186 -0.051,-0.339 -0.156,-0.458 C 0.423,-1.192 0.268,-1.268 0.063,-1.311 L 0.666,-2.236 C 0.692,-2.277 0.713,-2.315 0.737,-2.347 0.76,-2.38 0.78,-2.414 0.8,-2.449 0.82,-2.482 0.841,-2.519 0.866,-2.56 0.89,-2.599 0.917,-2.644 0.945,-2.693 l -0.593,0 -0.875,1.374 0,-1.378 -0.514,0 0,2.7 0.897,0 C -0.089,0.003 -0.041,0.001 0,0 m -0.523,-1.249 0.202,0 c 0.154,0 0.266,0.044 0.34,0.127 0.07,0.083 0.106,0.221 0.113,0.412 0,0.189 -0.037,0.325 -0.108,0.407 -0.068,0.085 -0.185,0.128 -0.345,0.128 l -0.202,0 0,-1.074 z"
             style="fill:#ccecc1;fill-opacity:1;fill-rule:nonzero;stroke:none"
             id="path833"
             inkscape:connector-curvature="0" />
        </g>
        <g
           id="g835"
           transform="translate(817.9476,22.7683)">
          <path
             d="M 0,0 0,-0.034 C 0,-0.097 0.004,-0.15 0.011,-0.193 0.02,-0.238 0.032,-0.276 0.049,-0.31 c 0.015,-0.034 0.036,-0.066 0.062,-0.095 0.024,-0.03 0.052,-0.059 0.086,-0.094 0.134,-0.131 0.328,-0.195 0.58,-0.195 0.029,0 0.055,0 0.09,0.002 0.028,0 0.065,0.005 0.102,0.008 0.039,0.007 0.077,0.012 0.119,0.016 0.042,0.003 0.088,0.009 0.134,0.019 C 1.107,-0.758 0.98,-0.84 0.841,-0.898 0.708,-0.952 0.565,-0.979 0.419,-0.979 c -0.284,0 -0.508,0.087 -0.676,0.265 -0.166,0.168 -0.251,0.403 -0.251,0.702 0,0.301 0.088,0.545 0.265,0.733 0.176,0.188 0.403,0.284 0.682,0.284 0.236,0 0.423,-0.078 0.56,-0.234 0.14,-0.157 0.21,-0.374 0.21,-0.645 l 0,-0.018 L 0,0 Z M 0.601,0.692 C 0.547,0.791 0.471,0.84 0.371,0.84 0.256,0.84 0.165,0.784 0.099,0.674 0.038,0.563 0.004,0.397 0,0.181 L 0.682,0.28 c 0,0.181 -0.026,0.317 -0.081,0.412 M 1.113,1.865 0.2,1.25 l -0.183,0 0.508,0.615 0.588,0 z"
             style="fill:#ccecc1;fill-opacity:1;fill-rule:nonzero;stroke:none"
             id="path837"
             inkscape:connector-curvature="0" />
        </g>
        <g
           id="g839"
           transform="translate(822.7688,23.3228)">
          <path
             d="m 0,0 -0.48,0.182 c 0.02,-0.015 0.032,-0.03 0.04,-0.039 0.009,-0.009 0.016,-0.018 0.021,-0.027 0.005,-0.008 0.011,-0.017 0.017,-0.029 0.005,-0.01 0.011,-0.025 0.02,-0.045 0.036,-0.07 0.053,-0.151 0.053,-0.242 0,-0.164 -0.073,-0.303 -0.218,-0.416 C -0.689,-0.725 -0.87,-0.78 -1.089,-0.78 l -0.042,0 c -0.011,0 -0.024,0.001 -0.045,0.003 -0.016,0.004 -0.036,0.005 -0.054,0.007 -0.021,0.002 -0.048,0.003 -0.075,0.01 -0.008,-0.017 -0.011,-0.033 -0.015,-0.048 -0.003,-0.015 -0.006,-0.028 -0.012,-0.043 -0.002,-0.013 -0.004,-0.025 -0.008,-0.034 l 0,-0.031 c 0,-0.061 0.02,-0.104 0.061,-0.132 0.049,-0.027 0.118,-0.042 0.212,-0.042 l 0.434,0 c 0.193,0 0.33,-0.033 0.415,-0.103 0.08,-0.068 0.122,-0.178 0.129,-0.331 0,-0.101 -0.029,-0.2 -0.083,-0.302 -0.057,-0.101 -0.135,-0.19 -0.23,-0.268 -0.1,-0.074 -0.218,-0.133 -0.351,-0.176 -0.13,-0.038 -0.275,-0.057 -0.435,-0.057 -0.231,-0.003 -0.429,0.042 -0.596,0.133 -0.163,0.085 -0.242,0.19 -0.242,0.311 0,0.067 0.03,0.132 0.096,0.194 0.032,0.03 0.075,0.061 0.132,0.096 0.054,0.035 0.123,0.073 0.201,0.113 -0.026,0.017 -0.05,0.035 -0.07,0.054 -0.018,0.018 -0.035,0.039 -0.048,0.061 -0.029,0.046 -0.042,0.094 -0.042,0.141 -0.003,0.06 0.026,0.127 0.086,0.201 0.06,0.068 0.173,0.159 0.339,0.271 -0.092,0.021 -0.171,0.049 -0.242,0.081 -0.069,0.032 -0.129,0.073 -0.179,0.121 -0.096,0.095 -0.145,0.217 -0.145,0.361 0,0.182 0.073,0.334 0.219,0.459 0.141,0.116 0.323,0.176 0.547,0.181 0.078,0.001 0.151,-0.006 0.218,-0.025 0.067,-0.017 0.131,-0.034 0.187,-0.054 L 0,0.367 0,0 Z m -1.612,-1.581 c -0.013,-0.025 -0.025,-0.052 -0.033,-0.077 -0.015,-0.045 -0.023,-0.088 -0.023,-0.125 0,-0.1 0.048,-0.179 0.147,-0.24 0.095,-0.064 0.226,-0.095 0.39,-0.095 0.098,-0.002 0.185,0.007 0.266,0.027 0.077,0.021 0.149,0.05 0.211,0.088 0.131,0.079 0.195,0.168 0.195,0.273 0,0.063 -0.021,0.11 -0.062,0.144 -0.047,0.031 -0.116,0.044 -0.206,0.044 l -0.568,0 c -0.068,0 -0.124,0.005 -0.163,0.013 -0.037,0.002 -0.073,0.013 -0.108,0.032 -0.015,-0.03 -0.031,-0.057 -0.046,-0.084 m 0.267,1.78 c -0.049,-0.071 -0.074,-0.175 -0.074,-0.312 -0.003,-0.08 0.004,-0.152 0.02,-0.212 0.014,-0.061 0.036,-0.118 0.067,-0.168 0.058,-0.09 0.136,-0.137 0.234,-0.139 0.097,-0.002 0.172,0.031 0.23,0.098 0.052,0.064 0.077,0.161 0.077,0.296 0,0.165 -0.029,0.297 -0.088,0.396 -0.061,0.096 -0.142,0.145 -0.243,0.148 -0.101,0 -0.173,-0.035 -0.223,-0.107"
             style="fill:#ccecc1;fill-opacity:1;fill-rule:nonzero;stroke:none"
             id="path841"
             inkscape:connector-curvature="0" />
        </g>
        <g
           id="g843"
           transform="translate(825.0499,24.5717)">
          <path
             d="m 0,0 c 0.044,-0.035 0.068,-0.093 0.074,-0.179 0,-0.078 -0.026,-0.136 -0.074,-0.173 -0.054,-0.036 -0.129,-0.056 -0.227,-0.056 -0.102,0 -0.177,0.018 -0.225,0.052 -0.05,0.037 -0.074,0.096 -0.074,0.177 0,0.08 0.024,0.141 0.074,0.179 0.04,0.032 0.116,0.051 0.225,0.058 C -0.123,0.058 -0.048,0.038 0,0 m 0.028,-2.729 -0.494,0 0,1.822 0.494,0.128 0,-1.95 z"
             style="fill:#ccecc1;fill-opacity:1;fill-rule:nonzero;stroke:none"
             id="path845"
             inkscape:connector-curvature="0" />
        </g>
        <g
           id="g847"
           transform="translate(827.2173,23.4991)">
          <path
             d="M 0,0 C 0.183,0.182 0.425,0.271 0.734,0.271 1.027,0.271 1.259,0.182 1.428,0.005 1.595,-0.168 1.682,-0.409 1.687,-0.72 1.691,-1.023 1.598,-1.269 1.412,-1.456 1.23,-1.636 0.987,-1.727 0.68,-1.727 c -0.293,0 -0.527,0.091 -0.702,0.271 -0.168,0.183 -0.253,0.428 -0.253,0.732 0,0.303 0.091,0.543 0.275,0.724 m 0.384,-0.099 c -0.077,-0.143 -0.115,-0.347 -0.115,-0.61 0,-0.269 0.039,-0.479 0.118,-0.629 0.08,-0.154 0.187,-0.23 0.32,-0.23 0.142,0 0.249,0.073 0.326,0.22 0.077,0.148 0.115,0.354 0.115,0.627 0,0.131 -0.008,0.25 -0.028,0.353 -0.019,0.104 -0.051,0.193 -0.091,0.269 -0.08,0.147 -0.189,0.22 -0.327,0.22 -0.136,0 -0.24,-0.073 -0.318,-0.22"
             style="fill:#ccecc1;fill-opacity:1;fill-rule:nonzero;stroke:none"
             id="path849"
             inkscape:connector-curvature="0" />
        </g>
        <g
           id="g851"
           transform="translate(832.4343,23.1961)">
          <path
             d="m 0,0 c 0.001,-0.036 0.002,-0.074 0.002,-0.117 l 0,-1.236 -0.498,0 0,1.06 c 0,0.24 -0.033,0.397 -0.095,0.474 -0.066,0.075 -0.184,0.115 -0.354,0.115 l -0.046,0 c -0.013,0 -0.029,-0.002 -0.049,-0.007 -0.033,0 -0.067,-0.006 -0.103,-0.014 l 0,-1.628 -0.493,0 0,1.817 0.493,0.128 0,-0.28 c 0.164,0.094 0.302,0.16 0.412,0.2 0.106,0.041 0.199,0.062 0.274,0.062 0.092,0 0.173,-0.024 0.244,-0.074 0.071,-0.048 0.125,-0.113 0.165,-0.198 0.006,-0.02 0.013,-0.05 0.021,-0.093 C -0.02,0.166 -0.013,0.128 -0.008,0.096 -0.003,0.066 -0.003,0.034 0,0"
             style="fill:#ccecc1;fill-opacity:1;fill-rule:nonzero;stroke:none"
             id="path853"
             inkscape:connector-curvature="0" />
        </g>
        <g
           id="g855"
           transform="translate(814.9583,24.5408)">
          <path
             d="m 0,0 c 0.041,-0.001 0.077,-0.005 0.108,-0.006 0.063,-0.003 0.104,-0.008 0.126,-0.017 0.148,-0.055 0.261,-0.133 0.339,-0.23 0.073,-0.099 0.11,-0.222 0.11,-0.366 0,-0.186 -0.051,-0.339 -0.156,-0.458 C 0.423,-1.192 0.268,-1.268 0.063,-1.311 L 0.666,-2.236 C 0.692,-2.277 0.713,-2.315 0.737,-2.347 0.76,-2.38 0.78,-2.414 0.8,-2.449 0.82,-2.482 0.841,-2.519 0.866,-2.56 0.89,-2.599 0.917,-2.644 0.945,-2.693 l -0.593,0 -0.875,1.374 0,-1.378 -0.514,0 0,2.7 0.897,0 C -0.089,0.003 -0.041,0.001 0,0 m -0.523,-1.249 0.202,0 c 0.154,0 0.266,0.044 0.34,0.127 0.07,0.083 0.106,0.221 0.113,0.412 0,0.189 -0.037,0.325 -0.108,0.407 -0.068,0.085 -0.185,0.128 -0.345,0.128 l -0.202,0 0,-1.074 z"
             style="fill:#ccecc1;fill-opacity:1;fill-rule:nonzero;stroke:none"
             id="path857"
             inkscape:connector-curvature="0" />
        </g>
        <g
           id="g859"
           transform="translate(817.9476,22.7683)">
          <path
             d="M 0,0 0,-0.034 C 0,-0.097 0.004,-0.15 0.011,-0.193 0.02,-0.238 0.032,-0.276 0.049,-0.31 c 0.015,-0.034 0.036,-0.066 0.062,-0.095 0.024,-0.03 0.052,-0.059 0.086,-0.094 0.134,-0.131 0.328,-0.195 0.58,-0.195 0.029,0 0.055,0 0.09,0.002 0.028,0 0.065,0.005 0.102,0.008 0.039,0.007 0.077,0.012 0.119,0.016 0.042,0.003 0.088,0.009 0.134,0.019 C 1.107,-0.758 0.98,-0.84 0.841,-0.898 0.708,-0.952 0.565,-0.979 0.419,-0.979 c -0.284,0 -0.508,0.087 -0.676,0.265 -0.166,0.168 -0.251,0.403 -0.251,0.702 0,0.301 0.088,0.545 0.265,0.733 0.176,0.188 0.403,0.284 0.682,0.284 0.236,0 0.423,-0.078 0.56,-0.234 0.14,-0.157 0.21,-0.374 0.21,-0.645 l 0,-0.018 L 0,0 Z M 0.601,0.692 C 0.547,0.791 0.471,0.84 0.371,0.84 0.256,0.84 0.165,0.784 0.099,0.674 0.038,0.563 0.004,0.397 0,0.181 L 0.682,0.28 c 0,0.181 -0.026,0.317 -0.081,0.412 M 1.113,1.865 0.2,1.25 l -0.183,0 0.508,0.615 0.588,0 z"
             style="fill:#ccecc1;fill-opacity:1;fill-rule:nonzero;stroke:none"
             id="path861"
             inkscape:connector-curvature="0" />
        </g>
        <g
           id="g863"
           transform="translate(822.7688,23.3228)">
          <path
             d="m 0,0 -0.48,0.182 c 0.02,-0.015 0.032,-0.03 0.04,-0.039 0.009,-0.009 0.016,-0.018 0.021,-0.027 0.005,-0.008 0.011,-0.017 0.017,-0.029 0.005,-0.01 0.011,-0.025 0.02,-0.045 0.036,-0.07 0.053,-0.151 0.053,-0.242 0,-0.164 -0.073,-0.303 -0.218,-0.416 C -0.689,-0.725 -0.87,-0.78 -1.089,-0.78 l -0.042,0 c -0.011,0 -0.024,0.001 -0.045,0.003 -0.016,0.004 -0.036,0.005 -0.054,0.007 -0.021,0.002 -0.048,0.003 -0.075,0.01 -0.008,-0.017 -0.011,-0.033 -0.015,-0.048 -0.003,-0.015 -0.006,-0.028 -0.012,-0.043 -0.002,-0.013 -0.004,-0.025 -0.008,-0.034 l 0,-0.031 c 0,-0.061 0.02,-0.104 0.061,-0.132 0.049,-0.027 0.118,-0.042 0.212,-0.042 l 0.434,0 c 0.193,0 0.33,-0.033 0.415,-0.103 0.08,-0.068 0.122,-0.178 0.129,-0.331 0,-0.101 -0.029,-0.2 -0.083,-0.302 -0.057,-0.101 -0.135,-0.19 -0.23,-0.268 -0.1,-0.074 -0.218,-0.133 -0.351,-0.176 -0.13,-0.038 -0.275,-0.057 -0.435,-0.057 -0.231,-0.003 -0.429,0.042 -0.596,0.133 -0.163,0.085 -0.242,0.19 -0.242,0.311 0,0.067 0.03,0.132 0.096,0.194 0.032,0.03 0.075,0.061 0.132,0.096 0.054,0.035 0.123,0.073 0.201,0.113 -0.026,0.017 -0.05,0.035 -0.07,0.054 -0.018,0.018 -0.035,0.039 -0.048,0.061 -0.029,0.046 -0.042,0.094 -0.042,0.141 -0.003,0.06 0.026,0.127 0.086,0.201 0.06,0.068 0.173,0.159 0.339,0.271 -0.092,0.021 -0.171,0.049 -0.242,0.081 -0.069,0.032 -0.129,0.073 -0.179,0.121 -0.096,0.095 -0.145,0.217 -0.145,0.361 0,0.182 0.073,0.334 0.219,0.459 0.141,0.116 0.323,0.176 0.547,0.181 0.078,0.001 0.151,-0.006 0.218,-0.025 0.067,-0.017 0.131,-0.034 0.187,-0.054 L 0,0.367 0,0 Z m -1.612,-1.581 c -0.013,-0.025 -0.025,-0.052 -0.033,-0.077 -0.015,-0.045 -0.023,-0.088 -0.023,-0.125 0,-0.1 0.048,-0.179 0.147,-0.24 0.095,-0.064 0.226,-0.095 0.39,-0.095 0.098,-0.002 0.185,0.007 0.266,0.027 0.077,0.021 0.149,0.05 0.211,0.088 0.131,0.079 0.195,0.168 0.195,0.273 0,0.063 -0.021,0.11 -0.062,0.144 -0.047,0.031 -0.116,0.044 -0.206,0.044 l -0.568,0 c -0.068,0 -0.124,0.005 -0.163,0.013 -0.037,0.002 -0.073,0.013 -0.108,0.032 -0.015,-0.03 -0.031,-0.057 -0.046,-0.084 m 0.267,1.78 c -0.049,-0.071 -0.074,-0.175 -0.074,-0.312 -0.003,-0.08 0.004,-0.152 0.02,-0.212 0.014,-0.061 0.036,-0.118 0.067,-0.168 0.058,-0.09 0.136,-0.137 0.234,-0.139 0.097,-0.002 0.172,0.031 0.23,0.098 0.052,0.064 0.077,0.161 0.077,0.296 0,0.165 -0.029,0.297 -0.088,0.396 -0.061,0.096 -0.142,0.145 -0.243,0.148 -0.101,0 -0.173,-0.035 -0.223,-0.107"
             style="fill:#ccecc1;fill-opacity:1;fill-rule:nonzero;stroke:none"
             id="path865"
             inkscape:connector-curvature="0" />
        </g>
        <g
           id="g867"
           transform="translate(825.0499,24.5717)">
          <path
             d="m 0,0 c 0.044,-0.035 0.068,-0.093 0.074,-0.179 0,-0.078 -0.026,-0.136 -0.074,-0.173 -0.054,-0.036 -0.129,-0.056 -0.227,-0.056 -0.102,0 -0.177,0.018 -0.225,0.052 -0.05,0.037 -0.074,0.096 -0.074,0.177 0,0.08 0.024,0.141 0.074,0.179 0.04,0.032 0.116,0.051 0.225,0.058 C -0.123,0.058 -0.048,0.038 0,0 m 0.028,-2.729 -0.494,0 0,1.822 0.494,0.128 0,-1.95 z"
             style="fill:#ccecc1;fill-opacity:1;fill-rule:nonzero;stroke:none"
             id="path869"
             inkscape:connector-curvature="0" />
        </g>
        <g
           id="g871"
           transform="translate(827.2173,23.4991)">
          <path
             d="M 0,0 C 0.183,0.182 0.425,0.271 0.734,0.271 1.027,0.271 1.259,0.182 1.428,0.005 1.595,-0.168 1.682,-0.409 1.687,-0.72 1.691,-1.023 1.598,-1.269 1.412,-1.456 1.23,-1.636 0.987,-1.727 0.68,-1.727 c -0.293,0 -0.527,0.091 -0.702,0.271 -0.168,0.183 -0.253,0.428 -0.253,0.732 0,0.303 0.091,0.543 0.275,0.724 m 0.384,-0.099 c -0.077,-0.143 -0.115,-0.347 -0.115,-0.61 0,-0.269 0.039,-0.479 0.118,-0.629 0.08,-0.154 0.187,-0.23 0.32,-0.23 0.142,0 0.249,0.073 0.326,0.22 0.077,0.148 0.115,0.354 0.115,0.627 0,0.131 -0.008,0.25 -0.028,0.353 -0.019,0.104 -0.051,0.193 -0.091,0.269 -0.08,0.147 -0.189,0.22 -0.327,0.22 -0.136,0 -0.24,-0.073 -0.318,-0.22"
             style="fill:#ccecc1;fill-opacity:1;fill-rule:nonzero;stroke:none"
             id="path873"
             inkscape:connector-curvature="0" />
        </g>
        <g
           id="g875"
           transform="translate(832.4343,23.1961)">
          <path
             d="m 0,0 c 0.001,-0.036 0.002,-0.074 0.002,-0.117 l 0,-1.236 -0.498,0 0,1.06 c 0,0.24 -0.033,0.397 -0.095,0.474 -0.066,0.075 -0.184,0.115 -0.354,0.115 l -0.046,0 c -0.013,0 -0.029,-0.002 -0.049,-0.007 -0.033,0 -0.067,-0.006 -0.103,-0.014 l 0,-1.628 -0.493,0 0,1.817 0.493,0.128 0,-0.28 c 0.164,0.094 0.302,0.16 0.412,0.2 0.106,0.041 0.199,0.062 0.274,0.062 0.092,0 0.173,-0.024 0.244,-0.074 0.071,-0.048 0.125,-0.113 0.165,-0.198 0.006,-0.02 0.013,-0.05 0.021,-0.093 C -0.02,0.166 -0.013,0.128 -0.008,0.096 -0.003,0.066 -0.003,0.034 0,0"
             style="fill:#ccecc1;fill-opacity:1;fill-rule:nonzero;stroke:none"
             id="path877"
             inkscape:connector-curvature="0" />
        </g>
      </g>
    </g>
    <path
       d="m 374.39494,411.60139 4.03931,0 0,-4.04486 -4.03931,0 0,4.04486 z"
       style="fill:#ccecc1;fill-opacity:1;fill-rule:nonzero;stroke:none"
       id="path879"
       inkscape:connector-curvature="0" />
    <path
       d="m 365.35044,415.86275 4.04671,0 0,-4.04487 -4.04671,0 0,4.04487 z"
       style="fill:#ccecc1;fill-opacity:1;fill-rule:nonzero;stroke:none"
       id="path881"
       inkscape:connector-curvature="0" />
    <path
       d="m 353.7469,427.5514 4.03376,0 0,-4.06152 -4.03376,0 0,4.06152 z"
       style="fill:#ccecc1;fill-opacity:1;fill-rule:nonzero;stroke:none"
       id="path883"
       inkscape:connector-curvature="0" />
    <g
       id="g885"
       transform="matrix(1.8503484,0,0,-1.8503484,361.72612,421.93726)">
      <path
         d="M 0,0 2.192,0.004 2.183,2.203 0,2.203 0,0.018 0,0 Z"
         style="fill:#ccecc1;fill-opacity:1;fill-rule:nonzero;stroke:none"
         id="path887"
         inkscape:connector-curvature="0" />
    </g>
    <path
       d="m 351.47467,436.0556 4.04116,0 0,-4.05412 -4.04116,0 0,4.05412 z"
       style="fill:#ccecc1;fill-opacity:1;fill-rule:nonzero;stroke:none"
       id="path889"
       inkscape:connector-curvature="0" />
    <path
       d="m 372.90356,419.85395 -0.003,0 0,0.009 0.003,0 0,-0.009 z m 25.41453,11.05398 c 0,0 -1.02879,1.56354 -1.44697,1.79854 -1.67271,0.96403 -0.47554,-1.42477 -0.29605,-1.88921 1.48768,-3.90608 3.34543,-13.07086 1.11391,-17.07871 -0.13693,-0.2535 -0.59952,1.37851 -0.91778,1.95396 -0.49774,0.85671 -0.93257,-0.24239 -0.83635,-1.0547 0.41077,-3.79136 0.46813,-8.64112 -0.62172,-9.55149 -0.16653,-0.14063 -1.00104,1.56909 -1.35816,1.3563 -0.18133,-0.10732 -0.0906,-1.60425 -0.13322,-1.89105 -0.24795,-1.83185 -1.28229,-3.1752 -2.34439,-3.77472 -0.36637,-0.21649 -0.74754,-0.34786 -1.11761,-0.34231 -0.0426,0 -0.13145,0.007 -0.13145,0.007 -0.0104,0.001 -0.0241,0 -0.0389,0.003 l -0.003,2.37585 -2.30924,-10e-4 0,10e-4 -0.0278,0 0,0.0148 -0.0166,0 -0.001,2.16491 -2.30553,0.001 0,0.0166 -0.0352,0 -0.007,4.48894 -4.4686,0.006 0,0.0133 -0.0203,0 -0.001,2.1316 -2.41285,0 -10e-4,1.57835 -1.59315,0 0,0.0166 -0.0352,0 -0.007,2.48316 -4.02821,-0.006 -0.009,4.12258 4.06336,0.009 0,4.07262 -4.06706,-0.007 0,-4.06522 -6.38,0.0204 0.006,5.47333 4.04856,0.0133 0,4.05782 -4.04856,-0.001 -0.0148,-4.05227 -1.68751,0 0,0.0185 -3.02717,0 -0.006,2.17786 -3.9912,-0.0185 0,4.26876 3.01792,0 -2.10755,4.29465 -3.18074,-0.0629 0,0.0167 -0.0166,0 0,4.0023 -2.19452,0 0,0.0148 -0.0185,0 -0.006,4.04301 5.0459,0.003 -0.0104,4.07077 -5.8397,-0.009 -0.001,7.27002 2.76257,-0.007 -0.006,6.86109 1.54319,-0.006 -0.006,2.21302 3.13449,0.009 0.0296,3.99305 -2.31293,0 0,4.51485 -2.19822,0.0277 0,2.15196 -4.72394,0 -0.0104,5.2994 5.09956,0 6.82038,-11.27418 c 0,0 0.42929,0.0278 0.99549,0 2.26853,-0.0814 14.862,-0.47924 16.20905,-3.94864 0.12405,-0.31271 -2.05943,-0.35897 -2.05943,-0.35897 0,0 0.0629,-1.00659 1.48213,-1.40256 0.19613,-0.11472 8.16743,-2.04279 9.06855,-5.04035 0.16098,-0.5218 -5.3364,0.64577 -3.78026,-0.47369 1.24714,-0.89927 5.43818,-3.55452 7.46616,-5.66947 3.80987,-3.97825 4.60181,-7.22561 4.64622,-7.76776 0.1091,-1.04175 -0.25164,-1.50803 -0.25164,-1.50803 0,0 -1.5506,1.71897 -2.72742,2.14455 -1.51543,0.54215 0.44409,-1.75598 0.44409,-1.75598 4.2484,-4.38163 4.41308,-8.46349 4.45748,-9.37942 0.0104,-0.21649 0.0684,-1.85775 0,-2.60159 -0.0647,-0.70683 -0.15172,-0.70683 -0.25164,-0.57731 m -39.13302,9.22214 0.0133,-4.06707 4.07632,0.009 -0.009,4.05041 -4.08002,0.007 z m 0.79935,28.3973 -0.0352,0 c 0.003,-0.006 0.0148,-0.0278 0.0352,-0.0666 l 0,0.0666 z m 2.57568,-2.76257 -0.69943,-0.35527 c 17.39328,-15.06369 28.43986,-56.51149 28.57863,-57.01479 l 0.0389,0.0315 c -0.0795,0.42929 -10.43411,43.02616 -27.91805,57.3386 m 3.96529,-40.40791 -0.0148,0 0,0.0166 0.0148,0 0,-0.0166 z"
       style="fill:#ccecc1;fill-opacity:1;fill-rule:nonzero;stroke:none"
       id="path899"
       inkscape:connector-curvature="0" />
    <g
       id="g901"
       transform="matrix(1.8503484,0,0,-1.8503484,376.09726,400.3572)">
      <path
         d="m 0,0 -18.732,-37.496 -0.73,-0.273 -0.386,-3.141 c 0,0 14.363,6.655 28.957,2.507 0,0 0.254,-0.038 0.174,0.189 0,0 -7.796,4.488 -24.074,1.668 l 15.14,36.355 c 0,0 -0.024,0.37 -0.349,0.191"
         style="fill:#ed1c24;fill-opacity:1;fill-rule:nonzero;stroke:none"
         id="path903"
         inkscape:connector-curvature="0" />
    </g>
  </g>
</svg>
